%TF.GenerationSoftware,KiCad,Pcbnew,8.0.5*%
%TF.CreationDate,2025-01-03T15:42:36+07:00*%
%TF.ProjectId,Controller_Board,436f6e74-726f-46c6-9c65-725f426f6172,rev?*%
%TF.SameCoordinates,Original*%
%TF.FileFunction,Soldermask,Top*%
%TF.FilePolarity,Negative*%
%FSLAX46Y46*%
G04 Gerber Fmt 4.6, Leading zero omitted, Abs format (unit mm)*
G04 Created by KiCad (PCBNEW 8.0.5) date 2025-01-03 15:42:36*
%MOMM*%
%LPD*%
G01*
G04 APERTURE LIST*
G04 Aperture macros list*
%AMRoundRect*
0 Rectangle with rounded corners*
0 $1 Rounding radius*
0 $2 $3 $4 $5 $6 $7 $8 $9 X,Y pos of 4 corners*
0 Add a 4 corners polygon primitive as box body*
4,1,4,$2,$3,$4,$5,$6,$7,$8,$9,$2,$3,0*
0 Add four circle primitives for the rounded corners*
1,1,$1+$1,$2,$3*
1,1,$1+$1,$4,$5*
1,1,$1+$1,$6,$7*
1,1,$1+$1,$8,$9*
0 Add four rect primitives between the rounded corners*
20,1,$1+$1,$2,$3,$4,$5,0*
20,1,$1+$1,$4,$5,$6,$7,0*
20,1,$1+$1,$6,$7,$8,$9,0*
20,1,$1+$1,$8,$9,$2,$3,0*%
G04 Aperture macros list end*
%ADD10C,1.600000*%
%ADD11RoundRect,0.135000X0.185000X-0.135000X0.185000X0.135000X-0.185000X0.135000X-0.185000X-0.135000X0*%
%ADD12RoundRect,0.140000X-0.170000X0.140000X-0.170000X-0.140000X0.170000X-0.140000X0.170000X0.140000X0*%
%ADD13RoundRect,0.135000X-0.135000X-0.185000X0.135000X-0.185000X0.135000X0.185000X-0.135000X0.185000X0*%
%ADD14RoundRect,0.250000X1.250000X0.550000X-1.250000X0.550000X-1.250000X-0.550000X1.250000X-0.550000X0*%
%ADD15C,3.200000*%
%ADD16RoundRect,0.250000X0.300000X-2.050000X0.300000X2.050000X-0.300000X2.050000X-0.300000X-2.050000X0*%
%ADD17RoundRect,0.250002X5.149998X-4.449998X5.149998X4.449998X-5.149998X4.449998X-5.149998X-4.449998X0*%
%ADD18RoundRect,0.135000X-0.185000X0.135000X-0.185000X-0.135000X0.185000X-0.135000X0.185000X0.135000X0*%
%ADD19RoundRect,0.218750X-0.218750X-0.256250X0.218750X-0.256250X0.218750X0.256250X-0.218750X0.256250X0*%
%ADD20RoundRect,0.250000X0.600000X0.725000X-0.600000X0.725000X-0.600000X-0.725000X0.600000X-0.725000X0*%
%ADD21O,1.700000X1.950000*%
%ADD22RoundRect,0.140000X-0.140000X-0.170000X0.140000X-0.170000X0.140000X0.170000X-0.140000X0.170000X0*%
%ADD23RoundRect,0.250000X0.250000X0.475000X-0.250000X0.475000X-0.250000X-0.475000X0.250000X-0.475000X0*%
%ADD24RoundRect,0.135000X0.135000X0.185000X-0.135000X0.185000X-0.135000X-0.185000X0.135000X-0.185000X0*%
%ADD25R,1.700000X1.700000*%
%ADD26O,1.700000X1.700000*%
%ADD27RoundRect,0.250000X-0.600000X-0.725000X0.600000X-0.725000X0.600000X0.725000X-0.600000X0.725000X0*%
%ADD28RoundRect,0.250000X-0.600000X-0.750000X0.600000X-0.750000X0.600000X0.750000X-0.600000X0.750000X0*%
%ADD29O,1.700000X2.000000*%
%ADD30R,1.600000X1.600000*%
%ADD31O,1.600000X1.600000*%
%ADD32O,0.800000X0.800000*%
%ADD33R,0.450000X1.300000*%
%ADD34O,1.150000X1.800000*%
%ADD35O,1.450000X2.000000*%
%ADD36RoundRect,0.140000X0.170000X-0.140000X0.170000X0.140000X-0.170000X0.140000X-0.170000X-0.140000X0*%
%ADD37RoundRect,0.250000X-0.475000X0.250000X-0.475000X-0.250000X0.475000X-0.250000X0.475000X0.250000X0*%
%ADD38R,2.100000X2.100000*%
%ADD39C,2.100000*%
%ADD40RoundRect,0.140000X0.140000X0.170000X-0.140000X0.170000X-0.140000X-0.170000X0.140000X-0.170000X0*%
%ADD41RoundRect,0.250000X0.600000X0.600000X-0.600000X0.600000X-0.600000X-0.600000X0.600000X-0.600000X0*%
%ADD42C,1.700000*%
%ADD43RoundRect,0.075000X-0.075000X0.662500X-0.075000X-0.662500X0.075000X-0.662500X0.075000X0.662500X0*%
%ADD44RoundRect,0.075000X-0.662500X0.075000X-0.662500X-0.075000X0.662500X-0.075000X0.662500X0.075000X0*%
%ADD45R,1.500000X1.500000*%
%ADD46C,1.500000*%
G04 APERTURE END LIST*
D10*
%TO.C,C15*%
X117300000Y-68000000D03*
X114800000Y-68000000D03*
%TD*%
D11*
%TO.C,R2*%
X92600000Y-102700000D03*
X92600000Y-101680000D03*
%TD*%
D12*
%TO.C,C4*%
X141400000Y-102140000D03*
X141400000Y-103100000D03*
%TD*%
D13*
%TO.C,R8*%
X140260000Y-116100000D03*
X141280000Y-116100000D03*
%TD*%
D14*
%TO.C,Electrolytic1*%
X145200000Y-84400000D03*
X140800000Y-84400000D03*
%TD*%
D15*
%TO.C,H3*%
X175000000Y-68300000D03*
%TD*%
D16*
%TO.C,U2*%
X143685000Y-78725000D03*
X146225000Y-78725000D03*
D17*
X146225000Y-69575000D03*
D16*
X148765000Y-78725000D03*
%TD*%
D18*
%TO.C,R4*%
X141500000Y-111890000D03*
X141500000Y-112910000D03*
%TD*%
D19*
%TO.C,D1*%
X144012500Y-88400000D03*
X145587500Y-88400000D03*
%TD*%
D20*
%TO.C,J7*%
X131800000Y-67900000D03*
D21*
X129300000Y-67900000D03*
X126800000Y-67900000D03*
X124300000Y-67900000D03*
%TD*%
D22*
%TO.C,C5*%
X138120000Y-99637500D03*
X139080000Y-99637500D03*
%TD*%
D23*
%TO.C,C3*%
X130330000Y-110260000D03*
X128430000Y-110260000D03*
%TD*%
D16*
%TO.C,U3*%
X159125000Y-78725000D03*
X161665000Y-78725000D03*
D17*
X161665000Y-69575000D03*
D16*
X164205000Y-78725000D03*
%TD*%
D24*
%TO.C,R6*%
X157987500Y-88600000D03*
X156967500Y-88600000D03*
%TD*%
D25*
%TO.C,J9*%
X147075000Y-114700000D03*
D26*
X144535000Y-114700000D03*
%TD*%
D20*
%TO.C,J8*%
X108500000Y-68000000D03*
D21*
X106000000Y-68000000D03*
X103500000Y-68000000D03*
X101000000Y-68000000D03*
%TD*%
D12*
%TO.C,C14*%
X135500000Y-98340000D03*
X135500000Y-99300000D03*
%TD*%
D27*
%TO.C,J2*%
X130040000Y-120400000D03*
D21*
X132540000Y-120400000D03*
X135040000Y-120400000D03*
X137540000Y-120400000D03*
X140040000Y-120400000D03*
%TD*%
D28*
%TO.C,J4*%
X146300000Y-120400000D03*
D29*
X148800000Y-120400000D03*
%TD*%
D30*
%TO.C,A1*%
X133100000Y-75000000D03*
D31*
X130560000Y-75000000D03*
X128020000Y-75000000D03*
X125480000Y-75000000D03*
X122940000Y-75000000D03*
X120400000Y-75000000D03*
X117860000Y-75000000D03*
X115320000Y-75000000D03*
X115320000Y-87700000D03*
X117860000Y-87700000D03*
X120400000Y-87700000D03*
X122940000Y-87700000D03*
X125480000Y-87700000D03*
X128020000Y-87700000D03*
X130560000Y-87700000D03*
X133100000Y-87700000D03*
%TD*%
D32*
%TO.C,J6*%
X156825000Y-122850000D03*
X161825000Y-122850000D03*
D33*
X158025000Y-121750000D03*
X158675000Y-121750000D03*
X159325000Y-121750000D03*
X159975000Y-121750000D03*
X160625000Y-121750000D03*
D34*
X155450000Y-125600000D03*
D35*
X155600000Y-121800000D03*
X163050000Y-121800000D03*
D34*
X163200000Y-125600000D03*
%TD*%
D13*
%TO.C,R9*%
X137660000Y-116100000D03*
X138680000Y-116100000D03*
%TD*%
D14*
%TO.C,Electrolytic2*%
X160800000Y-84600000D03*
X156400000Y-84600000D03*
%TD*%
D18*
%TO.C,R7*%
X158500000Y-102910000D03*
X158500000Y-103930000D03*
%TD*%
D10*
%TO.C,C16*%
X94600000Y-68000000D03*
X92100000Y-68000000D03*
%TD*%
D19*
%TO.C,D2*%
X159400000Y-88600000D03*
X160975000Y-88600000D03*
%TD*%
D18*
%TO.C,R1*%
X142100000Y-104700000D03*
X142100000Y-105720000D03*
%TD*%
D19*
%TO.C,FB1*%
X129725000Y-98700000D03*
X131300000Y-98700000D03*
%TD*%
D13*
%TO.C,R10*%
X135160000Y-116100000D03*
X136180000Y-116100000D03*
%TD*%
D36*
%TO.C,C10*%
X132700000Y-99300000D03*
X132700000Y-98340000D03*
%TD*%
D25*
%TO.C,JP1*%
X144600000Y-104760000D03*
D26*
X144600000Y-107300000D03*
%TD*%
D37*
%TO.C,C2*%
X164190000Y-82750000D03*
X164190000Y-84650000D03*
%TD*%
D24*
%TO.C,R5*%
X142695000Y-88400000D03*
X141675000Y-88400000D03*
%TD*%
D38*
%TO.C,J10*%
X175800000Y-81000000D03*
D39*
X175800000Y-75920000D03*
%TD*%
D22*
%TO.C,C11*%
X137700000Y-96100000D03*
X138660000Y-96100000D03*
%TD*%
D12*
%TO.C,C17*%
X158500000Y-105395000D03*
X158500000Y-106355000D03*
%TD*%
D15*
%TO.C,H1*%
X84500000Y-68300000D03*
%TD*%
D40*
%TO.C,C6*%
X129360000Y-108510000D03*
X128400000Y-108510000D03*
%TD*%
D41*
%TO.C,J3*%
X85700000Y-109340000D03*
D42*
X83160000Y-109340000D03*
X85700000Y-106800000D03*
X83160000Y-106800000D03*
X85700000Y-104260000D03*
X83160000Y-104260000D03*
X85700000Y-101720000D03*
X83160000Y-101720000D03*
%TD*%
D36*
%TO.C,C9*%
X133800000Y-99300000D03*
X133800000Y-98340000D03*
%TD*%
D22*
%TO.C,C13*%
X129740000Y-97200000D03*
X130700000Y-97200000D03*
%TD*%
D15*
%TO.C,H4*%
X175000000Y-121400000D03*
%TD*%
D30*
%TO.C,A2*%
X110040000Y-74900000D03*
D31*
X107500000Y-74900000D03*
X104960000Y-74900000D03*
X102420000Y-74900000D03*
X99880000Y-74900000D03*
X97340000Y-74900000D03*
X94800000Y-74900000D03*
X92260000Y-74900000D03*
X92260000Y-87600000D03*
X94800000Y-87600000D03*
X97340000Y-87600000D03*
X99880000Y-87600000D03*
X102420000Y-87600000D03*
X104960000Y-87600000D03*
X107500000Y-87600000D03*
X110040000Y-87600000D03*
%TD*%
D43*
%TO.C,U1*%
X138100000Y-101275000D03*
X137600000Y-101275000D03*
X137100000Y-101275000D03*
X136600000Y-101275000D03*
X136100000Y-101275000D03*
X135600000Y-101275000D03*
X135100000Y-101275000D03*
X134600000Y-101275000D03*
X134100000Y-101275000D03*
X133600000Y-101275000D03*
X133100000Y-101275000D03*
X132600000Y-101275000D03*
D44*
X131187500Y-102687500D03*
X131187500Y-103187500D03*
X131187500Y-103687500D03*
X131187500Y-104187500D03*
X131187500Y-104687500D03*
X131187500Y-105187500D03*
X131187500Y-105687500D03*
X131187500Y-106187500D03*
X131187500Y-106687500D03*
X131187500Y-107187500D03*
X131187500Y-107687500D03*
X131187500Y-108187500D03*
D43*
X132600000Y-109600000D03*
X133100000Y-109600000D03*
X133600000Y-109600000D03*
X134100000Y-109600000D03*
X134600000Y-109600000D03*
X135100000Y-109600000D03*
X135600000Y-109600000D03*
X136100000Y-109600000D03*
X136600000Y-109600000D03*
X137100000Y-109600000D03*
X137600000Y-109600000D03*
X138100000Y-109600000D03*
D44*
X139512500Y-108187500D03*
X139512500Y-107687500D03*
X139512500Y-107187500D03*
X139512500Y-106687500D03*
X139512500Y-106187500D03*
X139512500Y-105687500D03*
X139512500Y-105187500D03*
X139512500Y-104687500D03*
X139512500Y-104187500D03*
X139512500Y-103687500D03*
X139512500Y-103187500D03*
X139512500Y-102687500D03*
%TD*%
D27*
%TO.C,J1*%
X118400000Y-120500000D03*
D21*
X120900000Y-120500000D03*
X123400000Y-120500000D03*
%TD*%
D15*
%TO.C,H2*%
X84500000Y-121400000D03*
%TD*%
D40*
%TO.C,C12*%
X136660000Y-96100000D03*
X135700000Y-96100000D03*
%TD*%
D12*
%TO.C,C7*%
X139200000Y-110740000D03*
X139200000Y-111700000D03*
%TD*%
D45*
%TO.C,U4*%
X163100000Y-105210000D03*
D46*
X163100000Y-102670000D03*
X163100000Y-100130000D03*
X163100000Y-97590000D03*
%TD*%
%TO.C,Y1*%
X139900000Y-92400000D03*
X135020000Y-92400000D03*
%TD*%
D13*
%TO.C,R11*%
X132560000Y-116100000D03*
X133580000Y-116100000D03*
%TD*%
%TO.C,R12*%
X130060000Y-116100000D03*
X131080000Y-116100000D03*
%TD*%
D18*
%TO.C,R3*%
X92600000Y-103780000D03*
X92600000Y-104800000D03*
%TD*%
D25*
%TO.C,J5*%
X107300000Y-104560000D03*
D26*
X107300000Y-107100000D03*
X104760000Y-104560000D03*
X104760000Y-107100000D03*
X102220000Y-104560000D03*
X102220000Y-107100000D03*
X99680000Y-104560000D03*
X99680000Y-107100000D03*
%TD*%
D37*
%TO.C,C1*%
X148850000Y-82875000D03*
X148850000Y-84775000D03*
%TD*%
M02*
