%TF.GenerationSoftware,KiCad,Pcbnew,8.0.5*%
%TF.CreationDate,2025-01-03T15:42:36+07:00*%
%TF.ProjectId,Controller_Board,436f6e74-726f-46c6-9c65-725f426f6172,rev?*%
%TF.SameCoordinates,Original*%
%TF.FileFunction,Legend,Top*%
%TF.FilePolarity,Positive*%
%FSLAX46Y46*%
G04 Gerber Fmt 4.6, Leading zero omitted, Abs format (unit mm)*
G04 Created by KiCad (PCBNEW 8.0.5) date 2025-01-03 15:42:36*
%MOMM*%
%LPD*%
G01*
G04 APERTURE LIST*
%ADD10C,0.500000*%
%ADD11C,0.100000*%
%ADD12C,0.150000*%
%ADD13C,0.120000*%
G04 APERTURE END LIST*
D10*
X177681619Y-109128195D02*
X177681619Y-109794862D01*
X178729238Y-109794862D02*
X176729238Y-109794862D01*
X176729238Y-109794862D02*
X176729238Y-108842481D01*
X178634000Y-108175814D02*
X178729238Y-107890100D01*
X178729238Y-107890100D02*
X178729238Y-107413909D01*
X178729238Y-107413909D02*
X178634000Y-107223433D01*
X178634000Y-107223433D02*
X178538761Y-107128195D01*
X178538761Y-107128195D02*
X178348285Y-107032957D01*
X178348285Y-107032957D02*
X178157809Y-107032957D01*
X178157809Y-107032957D02*
X177967333Y-107128195D01*
X177967333Y-107128195D02*
X177872095Y-107223433D01*
X177872095Y-107223433D02*
X177776857Y-107413909D01*
X177776857Y-107413909D02*
X177681619Y-107794862D01*
X177681619Y-107794862D02*
X177586380Y-107985338D01*
X177586380Y-107985338D02*
X177491142Y-108080576D01*
X177491142Y-108080576D02*
X177300666Y-108175814D01*
X177300666Y-108175814D02*
X177110190Y-108175814D01*
X177110190Y-108175814D02*
X176919714Y-108080576D01*
X176919714Y-108080576D02*
X176824476Y-107985338D01*
X176824476Y-107985338D02*
X176729238Y-107794862D01*
X176729238Y-107794862D02*
X176729238Y-107318671D01*
X176729238Y-107318671D02*
X176824476Y-107032957D01*
X178919714Y-106652005D02*
X178919714Y-105128195D01*
X177681619Y-103985337D02*
X177776857Y-103699623D01*
X177776857Y-103699623D02*
X177872095Y-103604385D01*
X177872095Y-103604385D02*
X178062571Y-103509147D01*
X178062571Y-103509147D02*
X178348285Y-103509147D01*
X178348285Y-103509147D02*
X178538761Y-103604385D01*
X178538761Y-103604385D02*
X178634000Y-103699623D01*
X178634000Y-103699623D02*
X178729238Y-103890099D01*
X178729238Y-103890099D02*
X178729238Y-104652004D01*
X178729238Y-104652004D02*
X176729238Y-104652004D01*
X176729238Y-104652004D02*
X176729238Y-103985337D01*
X176729238Y-103985337D02*
X176824476Y-103794861D01*
X176824476Y-103794861D02*
X176919714Y-103699623D01*
X176919714Y-103699623D02*
X177110190Y-103604385D01*
X177110190Y-103604385D02*
X177300666Y-103604385D01*
X177300666Y-103604385D02*
X177491142Y-103699623D01*
X177491142Y-103699623D02*
X177586380Y-103794861D01*
X177586380Y-103794861D02*
X177681619Y-103985337D01*
X177681619Y-103985337D02*
X177681619Y-104652004D01*
X178729238Y-102366290D02*
X178634000Y-102556766D01*
X178634000Y-102556766D02*
X178538761Y-102652004D01*
X178538761Y-102652004D02*
X178348285Y-102747242D01*
X178348285Y-102747242D02*
X177776857Y-102747242D01*
X177776857Y-102747242D02*
X177586380Y-102652004D01*
X177586380Y-102652004D02*
X177491142Y-102556766D01*
X177491142Y-102556766D02*
X177395904Y-102366290D01*
X177395904Y-102366290D02*
X177395904Y-102080575D01*
X177395904Y-102080575D02*
X177491142Y-101890099D01*
X177491142Y-101890099D02*
X177586380Y-101794861D01*
X177586380Y-101794861D02*
X177776857Y-101699623D01*
X177776857Y-101699623D02*
X178348285Y-101699623D01*
X178348285Y-101699623D02*
X178538761Y-101794861D01*
X178538761Y-101794861D02*
X178634000Y-101890099D01*
X178634000Y-101890099D02*
X178729238Y-102080575D01*
X178729238Y-102080575D02*
X178729238Y-102366290D01*
X178729238Y-99985337D02*
X177681619Y-99985337D01*
X177681619Y-99985337D02*
X177491142Y-100080575D01*
X177491142Y-100080575D02*
X177395904Y-100271051D01*
X177395904Y-100271051D02*
X177395904Y-100652004D01*
X177395904Y-100652004D02*
X177491142Y-100842480D01*
X178634000Y-99985337D02*
X178729238Y-100175813D01*
X178729238Y-100175813D02*
X178729238Y-100652004D01*
X178729238Y-100652004D02*
X178634000Y-100842480D01*
X178634000Y-100842480D02*
X178443523Y-100937718D01*
X178443523Y-100937718D02*
X178253047Y-100937718D01*
X178253047Y-100937718D02*
X178062571Y-100842480D01*
X178062571Y-100842480D02*
X177967333Y-100652004D01*
X177967333Y-100652004D02*
X177967333Y-100175813D01*
X177967333Y-100175813D02*
X177872095Y-99985337D01*
X178729238Y-99032956D02*
X177395904Y-99032956D01*
X177776857Y-99032956D02*
X177586380Y-98937718D01*
X177586380Y-98937718D02*
X177491142Y-98842480D01*
X177491142Y-98842480D02*
X177395904Y-98652004D01*
X177395904Y-98652004D02*
X177395904Y-98461527D01*
X178729238Y-96937718D02*
X176729238Y-96937718D01*
X178634000Y-96937718D02*
X178729238Y-97128194D01*
X178729238Y-97128194D02*
X178729238Y-97509147D01*
X178729238Y-97509147D02*
X178634000Y-97699623D01*
X178634000Y-97699623D02*
X178538761Y-97794861D01*
X178538761Y-97794861D02*
X178348285Y-97890099D01*
X178348285Y-97890099D02*
X177776857Y-97890099D01*
X177776857Y-97890099D02*
X177586380Y-97794861D01*
X177586380Y-97794861D02*
X177491142Y-97699623D01*
X177491142Y-97699623D02*
X177395904Y-97509147D01*
X177395904Y-97509147D02*
X177395904Y-97128194D01*
X177395904Y-97128194D02*
X177491142Y-96937718D01*
X178919714Y-96461528D02*
X178919714Y-94937718D01*
X177395904Y-94652003D02*
X178729238Y-94175813D01*
X178729238Y-94175813D02*
X177395904Y-93699622D01*
X178538761Y-92937717D02*
X178634000Y-92842479D01*
X178634000Y-92842479D02*
X178729238Y-92937717D01*
X178729238Y-92937717D02*
X178634000Y-93032955D01*
X178634000Y-93032955D02*
X178538761Y-92937717D01*
X178538761Y-92937717D02*
X178729238Y-92937717D01*
X176729238Y-91604384D02*
X176729238Y-91413907D01*
X176729238Y-91413907D02*
X176824476Y-91223431D01*
X176824476Y-91223431D02*
X176919714Y-91128193D01*
X176919714Y-91128193D02*
X177110190Y-91032955D01*
X177110190Y-91032955D02*
X177491142Y-90937717D01*
X177491142Y-90937717D02*
X177967333Y-90937717D01*
X177967333Y-90937717D02*
X178348285Y-91032955D01*
X178348285Y-91032955D02*
X178538761Y-91128193D01*
X178538761Y-91128193D02*
X178634000Y-91223431D01*
X178634000Y-91223431D02*
X178729238Y-91413907D01*
X178729238Y-91413907D02*
X178729238Y-91604384D01*
X178729238Y-91604384D02*
X178634000Y-91794860D01*
X178634000Y-91794860D02*
X178538761Y-91890098D01*
X178538761Y-91890098D02*
X178348285Y-91985336D01*
X178348285Y-91985336D02*
X177967333Y-92080574D01*
X177967333Y-92080574D02*
X177491142Y-92080574D01*
X177491142Y-92080574D02*
X177110190Y-91985336D01*
X177110190Y-91985336D02*
X176919714Y-91890098D01*
X176919714Y-91890098D02*
X176824476Y-91794860D01*
X176824476Y-91794860D02*
X176729238Y-91604384D01*
X178538761Y-90080574D02*
X178634000Y-89985336D01*
X178634000Y-89985336D02*
X178729238Y-90080574D01*
X178729238Y-90080574D02*
X178634000Y-90175812D01*
X178634000Y-90175812D02*
X178538761Y-90080574D01*
X178538761Y-90080574D02*
X178729238Y-90080574D01*
X178729238Y-88080574D02*
X178729238Y-89223431D01*
X178729238Y-88652003D02*
X176729238Y-88652003D01*
X176729238Y-88652003D02*
X177014952Y-88842479D01*
X177014952Y-88842479D02*
X177205428Y-89032955D01*
X177205428Y-89032955D02*
X177300666Y-89223431D01*
X178538761Y-87223431D02*
X178634000Y-87128193D01*
X178634000Y-87128193D02*
X178729238Y-87223431D01*
X178729238Y-87223431D02*
X178634000Y-87318669D01*
X178634000Y-87318669D02*
X178538761Y-87223431D01*
X178538761Y-87223431D02*
X178729238Y-87223431D01*
X176729238Y-85890098D02*
X176729238Y-85699621D01*
X176729238Y-85699621D02*
X176824476Y-85509145D01*
X176824476Y-85509145D02*
X176919714Y-85413907D01*
X176919714Y-85413907D02*
X177110190Y-85318669D01*
X177110190Y-85318669D02*
X177491142Y-85223431D01*
X177491142Y-85223431D02*
X177967333Y-85223431D01*
X177967333Y-85223431D02*
X178348285Y-85318669D01*
X178348285Y-85318669D02*
X178538761Y-85413907D01*
X178538761Y-85413907D02*
X178634000Y-85509145D01*
X178634000Y-85509145D02*
X178729238Y-85699621D01*
X178729238Y-85699621D02*
X178729238Y-85890098D01*
X178729238Y-85890098D02*
X178634000Y-86080574D01*
X178634000Y-86080574D02*
X178538761Y-86175812D01*
X178538761Y-86175812D02*
X178348285Y-86271050D01*
X178348285Y-86271050D02*
X177967333Y-86366288D01*
X177967333Y-86366288D02*
X177491142Y-86366288D01*
X177491142Y-86366288D02*
X177110190Y-86271050D01*
X177110190Y-86271050D02*
X176919714Y-86175812D01*
X176919714Y-86175812D02*
X176824476Y-86080574D01*
X176824476Y-86080574D02*
X176729238Y-85890098D01*
D11*
X188957419Y-98992856D02*
X188957419Y-99183332D01*
X188957419Y-99183332D02*
X189005038Y-99278570D01*
X189005038Y-99278570D02*
X189052657Y-99326189D01*
X189052657Y-99326189D02*
X189195514Y-99421427D01*
X189195514Y-99421427D02*
X189385990Y-99469046D01*
X189385990Y-99469046D02*
X189766942Y-99469046D01*
X189766942Y-99469046D02*
X189862180Y-99421427D01*
X189862180Y-99421427D02*
X189909800Y-99373808D01*
X189909800Y-99373808D02*
X189957419Y-99278570D01*
X189957419Y-99278570D02*
X189957419Y-99088094D01*
X189957419Y-99088094D02*
X189909800Y-98992856D01*
X189909800Y-98992856D02*
X189862180Y-98945237D01*
X189862180Y-98945237D02*
X189766942Y-98897618D01*
X189766942Y-98897618D02*
X189528847Y-98897618D01*
X189528847Y-98897618D02*
X189433609Y-98945237D01*
X189433609Y-98945237D02*
X189385990Y-98992856D01*
X189385990Y-98992856D02*
X189338371Y-99088094D01*
X189338371Y-99088094D02*
X189338371Y-99278570D01*
X189338371Y-99278570D02*
X189385990Y-99373808D01*
X189385990Y-99373808D02*
X189433609Y-99421427D01*
X189433609Y-99421427D02*
X189528847Y-99469046D01*
X188957419Y-97992856D02*
X188957419Y-98469046D01*
X188957419Y-98469046D02*
X189433609Y-98516665D01*
X189433609Y-98516665D02*
X189385990Y-98469046D01*
X189385990Y-98469046D02*
X189338371Y-98373808D01*
X189338371Y-98373808D02*
X189338371Y-98135713D01*
X189338371Y-98135713D02*
X189385990Y-98040475D01*
X189385990Y-98040475D02*
X189433609Y-97992856D01*
X189433609Y-97992856D02*
X189528847Y-97945237D01*
X189528847Y-97945237D02*
X189766942Y-97945237D01*
X189766942Y-97945237D02*
X189862180Y-97992856D01*
X189862180Y-97992856D02*
X189909800Y-98040475D01*
X189909800Y-98040475D02*
X189957419Y-98135713D01*
X189957419Y-98135713D02*
X189957419Y-98373808D01*
X189957419Y-98373808D02*
X189909800Y-98469046D01*
X189909800Y-98469046D02*
X189862180Y-98516665D01*
X189862180Y-97516665D02*
X189909800Y-97469046D01*
X189909800Y-97469046D02*
X189957419Y-97516665D01*
X189957419Y-97516665D02*
X189909800Y-97564284D01*
X189909800Y-97564284D02*
X189862180Y-97516665D01*
X189862180Y-97516665D02*
X189957419Y-97516665D01*
X189957419Y-96516666D02*
X189957419Y-97088094D01*
X189957419Y-96802380D02*
X188957419Y-96802380D01*
X188957419Y-96802380D02*
X189100276Y-96897618D01*
X189100276Y-96897618D02*
X189195514Y-96992856D01*
X189195514Y-96992856D02*
X189243133Y-97088094D01*
X188957419Y-95897618D02*
X188957419Y-95802380D01*
X188957419Y-95802380D02*
X189005038Y-95707142D01*
X189005038Y-95707142D02*
X189052657Y-95659523D01*
X189052657Y-95659523D02*
X189147895Y-95611904D01*
X189147895Y-95611904D02*
X189338371Y-95564285D01*
X189338371Y-95564285D02*
X189576466Y-95564285D01*
X189576466Y-95564285D02*
X189766942Y-95611904D01*
X189766942Y-95611904D02*
X189862180Y-95659523D01*
X189862180Y-95659523D02*
X189909800Y-95707142D01*
X189909800Y-95707142D02*
X189957419Y-95802380D01*
X189957419Y-95802380D02*
X189957419Y-95897618D01*
X189957419Y-95897618D02*
X189909800Y-95992856D01*
X189909800Y-95992856D02*
X189862180Y-96040475D01*
X189862180Y-96040475D02*
X189766942Y-96088094D01*
X189766942Y-96088094D02*
X189576466Y-96135713D01*
X189576466Y-96135713D02*
X189338371Y-96135713D01*
X189338371Y-96135713D02*
X189147895Y-96088094D01*
X189147895Y-96088094D02*
X189052657Y-96040475D01*
X189052657Y-96040475D02*
X189005038Y-95992856D01*
X189005038Y-95992856D02*
X188957419Y-95897618D01*
X188957419Y-94945237D02*
X188957419Y-94849999D01*
X188957419Y-94849999D02*
X189005038Y-94754761D01*
X189005038Y-94754761D02*
X189052657Y-94707142D01*
X189052657Y-94707142D02*
X189147895Y-94659523D01*
X189147895Y-94659523D02*
X189338371Y-94611904D01*
X189338371Y-94611904D02*
X189576466Y-94611904D01*
X189576466Y-94611904D02*
X189766942Y-94659523D01*
X189766942Y-94659523D02*
X189862180Y-94707142D01*
X189862180Y-94707142D02*
X189909800Y-94754761D01*
X189909800Y-94754761D02*
X189957419Y-94849999D01*
X189957419Y-94849999D02*
X189957419Y-94945237D01*
X189957419Y-94945237D02*
X189909800Y-95040475D01*
X189909800Y-95040475D02*
X189862180Y-95088094D01*
X189862180Y-95088094D02*
X189766942Y-95135713D01*
X189766942Y-95135713D02*
X189576466Y-95183332D01*
X189576466Y-95183332D02*
X189338371Y-95183332D01*
X189338371Y-95183332D02*
X189147895Y-95135713D01*
X189147895Y-95135713D02*
X189052657Y-95088094D01*
X189052657Y-95088094D02*
X189005038Y-95040475D01*
X189005038Y-95040475D02*
X188957419Y-94945237D01*
X188957419Y-93992856D02*
X188957419Y-93897618D01*
X188957419Y-93897618D02*
X189005038Y-93802380D01*
X189005038Y-93802380D02*
X189052657Y-93754761D01*
X189052657Y-93754761D02*
X189147895Y-93707142D01*
X189147895Y-93707142D02*
X189338371Y-93659523D01*
X189338371Y-93659523D02*
X189576466Y-93659523D01*
X189576466Y-93659523D02*
X189766942Y-93707142D01*
X189766942Y-93707142D02*
X189862180Y-93754761D01*
X189862180Y-93754761D02*
X189909800Y-93802380D01*
X189909800Y-93802380D02*
X189957419Y-93897618D01*
X189957419Y-93897618D02*
X189957419Y-93992856D01*
X189957419Y-93992856D02*
X189909800Y-94088094D01*
X189909800Y-94088094D02*
X189862180Y-94135713D01*
X189862180Y-94135713D02*
X189766942Y-94183332D01*
X189766942Y-94183332D02*
X189576466Y-94230951D01*
X189576466Y-94230951D02*
X189338371Y-94230951D01*
X189338371Y-94230951D02*
X189147895Y-94183332D01*
X189147895Y-94183332D02*
X189052657Y-94135713D01*
X189052657Y-94135713D02*
X189005038Y-94088094D01*
X189005038Y-94088094D02*
X188957419Y-93992856D01*
X189957419Y-92469046D02*
X189290752Y-92469046D01*
X189385990Y-92469046D02*
X189338371Y-92421427D01*
X189338371Y-92421427D02*
X189290752Y-92326189D01*
X189290752Y-92326189D02*
X189290752Y-92183332D01*
X189290752Y-92183332D02*
X189338371Y-92088094D01*
X189338371Y-92088094D02*
X189433609Y-92040475D01*
X189433609Y-92040475D02*
X189957419Y-92040475D01*
X189433609Y-92040475D02*
X189338371Y-91992856D01*
X189338371Y-91992856D02*
X189290752Y-91897618D01*
X189290752Y-91897618D02*
X189290752Y-91754761D01*
X189290752Y-91754761D02*
X189338371Y-91659522D01*
X189338371Y-91659522D02*
X189433609Y-91611903D01*
X189433609Y-91611903D02*
X189957419Y-91611903D01*
X189957419Y-91135713D02*
X189290752Y-91135713D01*
X189385990Y-91135713D02*
X189338371Y-91088094D01*
X189338371Y-91088094D02*
X189290752Y-90992856D01*
X189290752Y-90992856D02*
X189290752Y-90849999D01*
X189290752Y-90849999D02*
X189338371Y-90754761D01*
X189338371Y-90754761D02*
X189433609Y-90707142D01*
X189433609Y-90707142D02*
X189957419Y-90707142D01*
X189433609Y-90707142D02*
X189338371Y-90659523D01*
X189338371Y-90659523D02*
X189290752Y-90564285D01*
X189290752Y-90564285D02*
X189290752Y-90421428D01*
X189290752Y-90421428D02*
X189338371Y-90326189D01*
X189338371Y-90326189D02*
X189433609Y-90278570D01*
X189433609Y-90278570D02*
X189957419Y-90278570D01*
X181500000Y-62300000D02*
X191186420Y-62300000D01*
X181500000Y-127400000D02*
X191186420Y-127400000D01*
X190600000Y-62300000D02*
X190600000Y-127400000D01*
X190600000Y-62300000D02*
X190600000Y-127400000D01*
X190600000Y-62300000D02*
X191186421Y-63426504D01*
X190600000Y-62300000D02*
X190013579Y-63426504D01*
X190600000Y-127400000D02*
X190013579Y-126273496D01*
X190600000Y-127400000D02*
X191186421Y-126273496D01*
X125226190Y-56557419D02*
X124654762Y-56557419D01*
X124940476Y-56557419D02*
X124940476Y-55557419D01*
X124940476Y-55557419D02*
X124845238Y-55700276D01*
X124845238Y-55700276D02*
X124750000Y-55795514D01*
X124750000Y-55795514D02*
X124654762Y-55843133D01*
X125845238Y-55557419D02*
X125940476Y-55557419D01*
X125940476Y-55557419D02*
X126035714Y-55605038D01*
X126035714Y-55605038D02*
X126083333Y-55652657D01*
X126083333Y-55652657D02*
X126130952Y-55747895D01*
X126130952Y-55747895D02*
X126178571Y-55938371D01*
X126178571Y-55938371D02*
X126178571Y-56176466D01*
X126178571Y-56176466D02*
X126130952Y-56366942D01*
X126130952Y-56366942D02*
X126083333Y-56462180D01*
X126083333Y-56462180D02*
X126035714Y-56509800D01*
X126035714Y-56509800D02*
X125940476Y-56557419D01*
X125940476Y-56557419D02*
X125845238Y-56557419D01*
X125845238Y-56557419D02*
X125750000Y-56509800D01*
X125750000Y-56509800D02*
X125702381Y-56462180D01*
X125702381Y-56462180D02*
X125654762Y-56366942D01*
X125654762Y-56366942D02*
X125607143Y-56176466D01*
X125607143Y-56176466D02*
X125607143Y-55938371D01*
X125607143Y-55938371D02*
X125654762Y-55747895D01*
X125654762Y-55747895D02*
X125702381Y-55652657D01*
X125702381Y-55652657D02*
X125750000Y-55605038D01*
X125750000Y-55605038D02*
X125845238Y-55557419D01*
X126559524Y-55652657D02*
X126607143Y-55605038D01*
X126607143Y-55605038D02*
X126702381Y-55557419D01*
X126702381Y-55557419D02*
X126940476Y-55557419D01*
X126940476Y-55557419D02*
X127035714Y-55605038D01*
X127035714Y-55605038D02*
X127083333Y-55652657D01*
X127083333Y-55652657D02*
X127130952Y-55747895D01*
X127130952Y-55747895D02*
X127130952Y-55843133D01*
X127130952Y-55843133D02*
X127083333Y-55985990D01*
X127083333Y-55985990D02*
X126511905Y-56557419D01*
X126511905Y-56557419D02*
X127130952Y-56557419D01*
X127559524Y-56462180D02*
X127607143Y-56509800D01*
X127607143Y-56509800D02*
X127559524Y-56557419D01*
X127559524Y-56557419D02*
X127511905Y-56509800D01*
X127511905Y-56509800D02*
X127559524Y-56462180D01*
X127559524Y-56462180D02*
X127559524Y-56557419D01*
X128511904Y-55557419D02*
X128035714Y-55557419D01*
X128035714Y-55557419D02*
X127988095Y-56033609D01*
X127988095Y-56033609D02*
X128035714Y-55985990D01*
X128035714Y-55985990D02*
X128130952Y-55938371D01*
X128130952Y-55938371D02*
X128369047Y-55938371D01*
X128369047Y-55938371D02*
X128464285Y-55985990D01*
X128464285Y-55985990D02*
X128511904Y-56033609D01*
X128511904Y-56033609D02*
X128559523Y-56128847D01*
X128559523Y-56128847D02*
X128559523Y-56366942D01*
X128559523Y-56366942D02*
X128511904Y-56462180D01*
X128511904Y-56462180D02*
X128464285Y-56509800D01*
X128464285Y-56509800D02*
X128369047Y-56557419D01*
X128369047Y-56557419D02*
X128130952Y-56557419D01*
X128130952Y-56557419D02*
X128035714Y-56509800D01*
X128035714Y-56509800D02*
X127988095Y-56462180D01*
X129178571Y-55557419D02*
X129273809Y-55557419D01*
X129273809Y-55557419D02*
X129369047Y-55605038D01*
X129369047Y-55605038D02*
X129416666Y-55652657D01*
X129416666Y-55652657D02*
X129464285Y-55747895D01*
X129464285Y-55747895D02*
X129511904Y-55938371D01*
X129511904Y-55938371D02*
X129511904Y-56176466D01*
X129511904Y-56176466D02*
X129464285Y-56366942D01*
X129464285Y-56366942D02*
X129416666Y-56462180D01*
X129416666Y-56462180D02*
X129369047Y-56509800D01*
X129369047Y-56509800D02*
X129273809Y-56557419D01*
X129273809Y-56557419D02*
X129178571Y-56557419D01*
X129178571Y-56557419D02*
X129083333Y-56509800D01*
X129083333Y-56509800D02*
X129035714Y-56462180D01*
X129035714Y-56462180D02*
X128988095Y-56366942D01*
X128988095Y-56366942D02*
X128940476Y-56176466D01*
X128940476Y-56176466D02*
X128940476Y-55938371D01*
X128940476Y-55938371D02*
X128988095Y-55747895D01*
X128988095Y-55747895D02*
X129035714Y-55652657D01*
X129035714Y-55652657D02*
X129083333Y-55605038D01*
X129083333Y-55605038D02*
X129178571Y-55557419D01*
X130130952Y-55557419D02*
X130226190Y-55557419D01*
X130226190Y-55557419D02*
X130321428Y-55605038D01*
X130321428Y-55605038D02*
X130369047Y-55652657D01*
X130369047Y-55652657D02*
X130416666Y-55747895D01*
X130416666Y-55747895D02*
X130464285Y-55938371D01*
X130464285Y-55938371D02*
X130464285Y-56176466D01*
X130464285Y-56176466D02*
X130416666Y-56366942D01*
X130416666Y-56366942D02*
X130369047Y-56462180D01*
X130369047Y-56462180D02*
X130321428Y-56509800D01*
X130321428Y-56509800D02*
X130226190Y-56557419D01*
X130226190Y-56557419D02*
X130130952Y-56557419D01*
X130130952Y-56557419D02*
X130035714Y-56509800D01*
X130035714Y-56509800D02*
X129988095Y-56462180D01*
X129988095Y-56462180D02*
X129940476Y-56366942D01*
X129940476Y-56366942D02*
X129892857Y-56176466D01*
X129892857Y-56176466D02*
X129892857Y-55938371D01*
X129892857Y-55938371D02*
X129940476Y-55747895D01*
X129940476Y-55747895D02*
X129988095Y-55652657D01*
X129988095Y-55652657D02*
X130035714Y-55605038D01*
X130035714Y-55605038D02*
X130130952Y-55557419D01*
X131083333Y-55557419D02*
X131178571Y-55557419D01*
X131178571Y-55557419D02*
X131273809Y-55605038D01*
X131273809Y-55605038D02*
X131321428Y-55652657D01*
X131321428Y-55652657D02*
X131369047Y-55747895D01*
X131369047Y-55747895D02*
X131416666Y-55938371D01*
X131416666Y-55938371D02*
X131416666Y-56176466D01*
X131416666Y-56176466D02*
X131369047Y-56366942D01*
X131369047Y-56366942D02*
X131321428Y-56462180D01*
X131321428Y-56462180D02*
X131273809Y-56509800D01*
X131273809Y-56509800D02*
X131178571Y-56557419D01*
X131178571Y-56557419D02*
X131083333Y-56557419D01*
X131083333Y-56557419D02*
X130988095Y-56509800D01*
X130988095Y-56509800D02*
X130940476Y-56462180D01*
X130940476Y-56462180D02*
X130892857Y-56366942D01*
X130892857Y-56366942D02*
X130845238Y-56176466D01*
X130845238Y-56176466D02*
X130845238Y-55938371D01*
X130845238Y-55938371D02*
X130892857Y-55747895D01*
X130892857Y-55747895D02*
X130940476Y-55652657D01*
X130940476Y-55652657D02*
X130988095Y-55605038D01*
X130988095Y-55605038D02*
X131083333Y-55557419D01*
X132607143Y-56557419D02*
X132607143Y-55890752D01*
X132607143Y-55985990D02*
X132654762Y-55938371D01*
X132654762Y-55938371D02*
X132750000Y-55890752D01*
X132750000Y-55890752D02*
X132892857Y-55890752D01*
X132892857Y-55890752D02*
X132988095Y-55938371D01*
X132988095Y-55938371D02*
X133035714Y-56033609D01*
X133035714Y-56033609D02*
X133035714Y-56557419D01*
X133035714Y-56033609D02*
X133083333Y-55938371D01*
X133083333Y-55938371D02*
X133178571Y-55890752D01*
X133178571Y-55890752D02*
X133321428Y-55890752D01*
X133321428Y-55890752D02*
X133416667Y-55938371D01*
X133416667Y-55938371D02*
X133464286Y-56033609D01*
X133464286Y-56033609D02*
X133464286Y-56557419D01*
X133940476Y-56557419D02*
X133940476Y-55890752D01*
X133940476Y-55985990D02*
X133988095Y-55938371D01*
X133988095Y-55938371D02*
X134083333Y-55890752D01*
X134083333Y-55890752D02*
X134226190Y-55890752D01*
X134226190Y-55890752D02*
X134321428Y-55938371D01*
X134321428Y-55938371D02*
X134369047Y-56033609D01*
X134369047Y-56033609D02*
X134369047Y-56557419D01*
X134369047Y-56033609D02*
X134416666Y-55938371D01*
X134416666Y-55938371D02*
X134511904Y-55890752D01*
X134511904Y-55890752D02*
X134654761Y-55890752D01*
X134654761Y-55890752D02*
X134750000Y-55938371D01*
X134750000Y-55938371D02*
X134797619Y-56033609D01*
X134797619Y-56033609D02*
X134797619Y-56557419D01*
X78500000Y-61800000D02*
X78500000Y-56613580D01*
X181000000Y-61800000D02*
X181000000Y-56613580D01*
X78500000Y-57200000D02*
X181000000Y-57200000D01*
X78500000Y-57200000D02*
X181000000Y-57200000D01*
X78500000Y-57200000D02*
X79626504Y-56613579D01*
X78500000Y-57200000D02*
X79626504Y-57786421D01*
X181000000Y-57200000D02*
X179873496Y-57786421D01*
X181000000Y-57200000D02*
X179873496Y-56613579D01*
D12*
X115407142Y-72759580D02*
X115359523Y-72807200D01*
X115359523Y-72807200D02*
X115216666Y-72854819D01*
X115216666Y-72854819D02*
X115121428Y-72854819D01*
X115121428Y-72854819D02*
X114978571Y-72807200D01*
X114978571Y-72807200D02*
X114883333Y-72711961D01*
X114883333Y-72711961D02*
X114835714Y-72616723D01*
X114835714Y-72616723D02*
X114788095Y-72426247D01*
X114788095Y-72426247D02*
X114788095Y-72283390D01*
X114788095Y-72283390D02*
X114835714Y-72092914D01*
X114835714Y-72092914D02*
X114883333Y-71997676D01*
X114883333Y-71997676D02*
X114978571Y-71902438D01*
X114978571Y-71902438D02*
X115121428Y-71854819D01*
X115121428Y-71854819D02*
X115216666Y-71854819D01*
X115216666Y-71854819D02*
X115359523Y-71902438D01*
X115359523Y-71902438D02*
X115407142Y-71950057D01*
X116359523Y-72854819D02*
X115788095Y-72854819D01*
X116073809Y-72854819D02*
X116073809Y-71854819D01*
X116073809Y-71854819D02*
X115978571Y-71997676D01*
X115978571Y-71997676D02*
X115883333Y-72092914D01*
X115883333Y-72092914D02*
X115788095Y-72140533D01*
X117264285Y-71854819D02*
X116788095Y-71854819D01*
X116788095Y-71854819D02*
X116740476Y-72331009D01*
X116740476Y-72331009D02*
X116788095Y-72283390D01*
X116788095Y-72283390D02*
X116883333Y-72235771D01*
X116883333Y-72235771D02*
X117121428Y-72235771D01*
X117121428Y-72235771D02*
X117216666Y-72283390D01*
X117216666Y-72283390D02*
X117264285Y-72331009D01*
X117264285Y-72331009D02*
X117311904Y-72426247D01*
X117311904Y-72426247D02*
X117311904Y-72664342D01*
X117311904Y-72664342D02*
X117264285Y-72759580D01*
X117264285Y-72759580D02*
X117216666Y-72807200D01*
X117216666Y-72807200D02*
X117121428Y-72854819D01*
X117121428Y-72854819D02*
X116883333Y-72854819D01*
X116883333Y-72854819D02*
X116788095Y-72807200D01*
X116788095Y-72807200D02*
X116740476Y-72759580D01*
X91854819Y-102366666D02*
X91378628Y-102699999D01*
X91854819Y-102938094D02*
X90854819Y-102938094D01*
X90854819Y-102938094D02*
X90854819Y-102557142D01*
X90854819Y-102557142D02*
X90902438Y-102461904D01*
X90902438Y-102461904D02*
X90950057Y-102414285D01*
X90950057Y-102414285D02*
X91045295Y-102366666D01*
X91045295Y-102366666D02*
X91188152Y-102366666D01*
X91188152Y-102366666D02*
X91283390Y-102414285D01*
X91283390Y-102414285D02*
X91331009Y-102461904D01*
X91331009Y-102461904D02*
X91378628Y-102557142D01*
X91378628Y-102557142D02*
X91378628Y-102938094D01*
X90950057Y-101985713D02*
X90902438Y-101938094D01*
X90902438Y-101938094D02*
X90854819Y-101842856D01*
X90854819Y-101842856D02*
X90854819Y-101604761D01*
X90854819Y-101604761D02*
X90902438Y-101509523D01*
X90902438Y-101509523D02*
X90950057Y-101461904D01*
X90950057Y-101461904D02*
X91045295Y-101414285D01*
X91045295Y-101414285D02*
X91140533Y-101414285D01*
X91140533Y-101414285D02*
X91283390Y-101461904D01*
X91283390Y-101461904D02*
X91854819Y-102033332D01*
X91854819Y-102033332D02*
X91854819Y-101414285D01*
X142919580Y-102786666D02*
X142967200Y-102834285D01*
X142967200Y-102834285D02*
X143014819Y-102977142D01*
X143014819Y-102977142D02*
X143014819Y-103072380D01*
X143014819Y-103072380D02*
X142967200Y-103215237D01*
X142967200Y-103215237D02*
X142871961Y-103310475D01*
X142871961Y-103310475D02*
X142776723Y-103358094D01*
X142776723Y-103358094D02*
X142586247Y-103405713D01*
X142586247Y-103405713D02*
X142443390Y-103405713D01*
X142443390Y-103405713D02*
X142252914Y-103358094D01*
X142252914Y-103358094D02*
X142157676Y-103310475D01*
X142157676Y-103310475D02*
X142062438Y-103215237D01*
X142062438Y-103215237D02*
X142014819Y-103072380D01*
X142014819Y-103072380D02*
X142014819Y-102977142D01*
X142014819Y-102977142D02*
X142062438Y-102834285D01*
X142062438Y-102834285D02*
X142110057Y-102786666D01*
X142348152Y-101929523D02*
X143014819Y-101929523D01*
X141967200Y-102167618D02*
X142681485Y-102405713D01*
X142681485Y-102405713D02*
X142681485Y-101786666D01*
X174238095Y-64554819D02*
X174238095Y-63554819D01*
X174238095Y-64031009D02*
X174809523Y-64031009D01*
X174809523Y-64554819D02*
X174809523Y-63554819D01*
X175190476Y-63554819D02*
X175809523Y-63554819D01*
X175809523Y-63554819D02*
X175476190Y-63935771D01*
X175476190Y-63935771D02*
X175619047Y-63935771D01*
X175619047Y-63935771D02*
X175714285Y-63983390D01*
X175714285Y-63983390D02*
X175761904Y-64031009D01*
X175761904Y-64031009D02*
X175809523Y-64126247D01*
X175809523Y-64126247D02*
X175809523Y-64364342D01*
X175809523Y-64364342D02*
X175761904Y-64459580D01*
X175761904Y-64459580D02*
X175714285Y-64507200D01*
X175714285Y-64507200D02*
X175619047Y-64554819D01*
X175619047Y-64554819D02*
X175333333Y-64554819D01*
X175333333Y-64554819D02*
X175238095Y-64507200D01*
X175238095Y-64507200D02*
X175190476Y-64459580D01*
X165838095Y-81654819D02*
X165838095Y-82464342D01*
X165838095Y-82464342D02*
X165885714Y-82559580D01*
X165885714Y-82559580D02*
X165933333Y-82607200D01*
X165933333Y-82607200D02*
X166028571Y-82654819D01*
X166028571Y-82654819D02*
X166219047Y-82654819D01*
X166219047Y-82654819D02*
X166314285Y-82607200D01*
X166314285Y-82607200D02*
X166361904Y-82559580D01*
X166361904Y-82559580D02*
X166409523Y-82464342D01*
X166409523Y-82464342D02*
X166409523Y-81654819D01*
X166838095Y-81750057D02*
X166885714Y-81702438D01*
X166885714Y-81702438D02*
X166980952Y-81654819D01*
X166980952Y-81654819D02*
X167219047Y-81654819D01*
X167219047Y-81654819D02*
X167314285Y-81702438D01*
X167314285Y-81702438D02*
X167361904Y-81750057D01*
X167361904Y-81750057D02*
X167409523Y-81845295D01*
X167409523Y-81845295D02*
X167409523Y-81940533D01*
X167409523Y-81940533D02*
X167361904Y-82083390D01*
X167361904Y-82083390D02*
X166790476Y-82654819D01*
X166790476Y-82654819D02*
X167409523Y-82654819D01*
X143124819Y-110966666D02*
X142648628Y-111299999D01*
X143124819Y-111538094D02*
X142124819Y-111538094D01*
X142124819Y-111538094D02*
X142124819Y-111157142D01*
X142124819Y-111157142D02*
X142172438Y-111061904D01*
X142172438Y-111061904D02*
X142220057Y-111014285D01*
X142220057Y-111014285D02*
X142315295Y-110966666D01*
X142315295Y-110966666D02*
X142458152Y-110966666D01*
X142458152Y-110966666D02*
X142553390Y-111014285D01*
X142553390Y-111014285D02*
X142601009Y-111061904D01*
X142601009Y-111061904D02*
X142648628Y-111157142D01*
X142648628Y-111157142D02*
X142648628Y-111538094D01*
X142458152Y-110109523D02*
X143124819Y-110109523D01*
X142077200Y-110347618D02*
X142791485Y-110585713D01*
X142791485Y-110585713D02*
X142791485Y-109966666D01*
X146861905Y-88854819D02*
X146861905Y-87854819D01*
X146861905Y-87854819D02*
X147100000Y-87854819D01*
X147100000Y-87854819D02*
X147242857Y-87902438D01*
X147242857Y-87902438D02*
X147338095Y-87997676D01*
X147338095Y-87997676D02*
X147385714Y-88092914D01*
X147385714Y-88092914D02*
X147433333Y-88283390D01*
X147433333Y-88283390D02*
X147433333Y-88426247D01*
X147433333Y-88426247D02*
X147385714Y-88616723D01*
X147385714Y-88616723D02*
X147338095Y-88711961D01*
X147338095Y-88711961D02*
X147242857Y-88807200D01*
X147242857Y-88807200D02*
X147100000Y-88854819D01*
X147100000Y-88854819D02*
X146861905Y-88854819D01*
X148385714Y-88854819D02*
X147814286Y-88854819D01*
X148100000Y-88854819D02*
X148100000Y-87854819D01*
X148100000Y-87854819D02*
X148004762Y-87997676D01*
X148004762Y-87997676D02*
X147909524Y-88092914D01*
X147909524Y-88092914D02*
X147814286Y-88140533D01*
X139533333Y-98859580D02*
X139485714Y-98907200D01*
X139485714Y-98907200D02*
X139342857Y-98954819D01*
X139342857Y-98954819D02*
X139247619Y-98954819D01*
X139247619Y-98954819D02*
X139104762Y-98907200D01*
X139104762Y-98907200D02*
X139009524Y-98811961D01*
X139009524Y-98811961D02*
X138961905Y-98716723D01*
X138961905Y-98716723D02*
X138914286Y-98526247D01*
X138914286Y-98526247D02*
X138914286Y-98383390D01*
X138914286Y-98383390D02*
X138961905Y-98192914D01*
X138961905Y-98192914D02*
X139009524Y-98097676D01*
X139009524Y-98097676D02*
X139104762Y-98002438D01*
X139104762Y-98002438D02*
X139247619Y-97954819D01*
X139247619Y-97954819D02*
X139342857Y-97954819D01*
X139342857Y-97954819D02*
X139485714Y-98002438D01*
X139485714Y-98002438D02*
X139533333Y-98050057D01*
X140438095Y-97954819D02*
X139961905Y-97954819D01*
X139961905Y-97954819D02*
X139914286Y-98431009D01*
X139914286Y-98431009D02*
X139961905Y-98383390D01*
X139961905Y-98383390D02*
X140057143Y-98335771D01*
X140057143Y-98335771D02*
X140295238Y-98335771D01*
X140295238Y-98335771D02*
X140390476Y-98383390D01*
X140390476Y-98383390D02*
X140438095Y-98431009D01*
X140438095Y-98431009D02*
X140485714Y-98526247D01*
X140485714Y-98526247D02*
X140485714Y-98764342D01*
X140485714Y-98764342D02*
X140438095Y-98859580D01*
X140438095Y-98859580D02*
X140390476Y-98907200D01*
X140390476Y-98907200D02*
X140295238Y-98954819D01*
X140295238Y-98954819D02*
X140057143Y-98954819D01*
X140057143Y-98954819D02*
X139961905Y-98907200D01*
X139961905Y-98907200D02*
X139914286Y-98859580D01*
X126233333Y-111159580D02*
X126185714Y-111207200D01*
X126185714Y-111207200D02*
X126042857Y-111254819D01*
X126042857Y-111254819D02*
X125947619Y-111254819D01*
X125947619Y-111254819D02*
X125804762Y-111207200D01*
X125804762Y-111207200D02*
X125709524Y-111111961D01*
X125709524Y-111111961D02*
X125661905Y-111016723D01*
X125661905Y-111016723D02*
X125614286Y-110826247D01*
X125614286Y-110826247D02*
X125614286Y-110683390D01*
X125614286Y-110683390D02*
X125661905Y-110492914D01*
X125661905Y-110492914D02*
X125709524Y-110397676D01*
X125709524Y-110397676D02*
X125804762Y-110302438D01*
X125804762Y-110302438D02*
X125947619Y-110254819D01*
X125947619Y-110254819D02*
X126042857Y-110254819D01*
X126042857Y-110254819D02*
X126185714Y-110302438D01*
X126185714Y-110302438D02*
X126233333Y-110350057D01*
X126566667Y-110254819D02*
X127185714Y-110254819D01*
X127185714Y-110254819D02*
X126852381Y-110635771D01*
X126852381Y-110635771D02*
X126995238Y-110635771D01*
X126995238Y-110635771D02*
X127090476Y-110683390D01*
X127090476Y-110683390D02*
X127138095Y-110731009D01*
X127138095Y-110731009D02*
X127185714Y-110826247D01*
X127185714Y-110826247D02*
X127185714Y-111064342D01*
X127185714Y-111064342D02*
X127138095Y-111159580D01*
X127138095Y-111159580D02*
X127090476Y-111207200D01*
X127090476Y-111207200D02*
X126995238Y-111254819D01*
X126995238Y-111254819D02*
X126709524Y-111254819D01*
X126709524Y-111254819D02*
X126614286Y-111207200D01*
X126614286Y-111207200D02*
X126566667Y-111159580D01*
X150238095Y-81654819D02*
X150238095Y-82464342D01*
X150238095Y-82464342D02*
X150285714Y-82559580D01*
X150285714Y-82559580D02*
X150333333Y-82607200D01*
X150333333Y-82607200D02*
X150428571Y-82654819D01*
X150428571Y-82654819D02*
X150619047Y-82654819D01*
X150619047Y-82654819D02*
X150714285Y-82607200D01*
X150714285Y-82607200D02*
X150761904Y-82559580D01*
X150761904Y-82559580D02*
X150809523Y-82464342D01*
X150809523Y-82464342D02*
X150809523Y-81654819D01*
X151190476Y-81654819D02*
X151809523Y-81654819D01*
X151809523Y-81654819D02*
X151476190Y-82035771D01*
X151476190Y-82035771D02*
X151619047Y-82035771D01*
X151619047Y-82035771D02*
X151714285Y-82083390D01*
X151714285Y-82083390D02*
X151761904Y-82131009D01*
X151761904Y-82131009D02*
X151809523Y-82226247D01*
X151809523Y-82226247D02*
X151809523Y-82464342D01*
X151809523Y-82464342D02*
X151761904Y-82559580D01*
X151761904Y-82559580D02*
X151714285Y-82607200D01*
X151714285Y-82607200D02*
X151619047Y-82654819D01*
X151619047Y-82654819D02*
X151333333Y-82654819D01*
X151333333Y-82654819D02*
X151238095Y-82607200D01*
X151238095Y-82607200D02*
X151190476Y-82559580D01*
X154233333Y-89054819D02*
X153900000Y-88578628D01*
X153661905Y-89054819D02*
X153661905Y-88054819D01*
X153661905Y-88054819D02*
X154042857Y-88054819D01*
X154042857Y-88054819D02*
X154138095Y-88102438D01*
X154138095Y-88102438D02*
X154185714Y-88150057D01*
X154185714Y-88150057D02*
X154233333Y-88245295D01*
X154233333Y-88245295D02*
X154233333Y-88388152D01*
X154233333Y-88388152D02*
X154185714Y-88483390D01*
X154185714Y-88483390D02*
X154138095Y-88531009D01*
X154138095Y-88531009D02*
X154042857Y-88578628D01*
X154042857Y-88578628D02*
X153661905Y-88578628D01*
X155090476Y-88054819D02*
X154900000Y-88054819D01*
X154900000Y-88054819D02*
X154804762Y-88102438D01*
X154804762Y-88102438D02*
X154757143Y-88150057D01*
X154757143Y-88150057D02*
X154661905Y-88292914D01*
X154661905Y-88292914D02*
X154614286Y-88483390D01*
X154614286Y-88483390D02*
X154614286Y-88864342D01*
X154614286Y-88864342D02*
X154661905Y-88959580D01*
X154661905Y-88959580D02*
X154709524Y-89007200D01*
X154709524Y-89007200D02*
X154804762Y-89054819D01*
X154804762Y-89054819D02*
X154995238Y-89054819D01*
X154995238Y-89054819D02*
X155090476Y-89007200D01*
X155090476Y-89007200D02*
X155138095Y-88959580D01*
X155138095Y-88959580D02*
X155185714Y-88864342D01*
X155185714Y-88864342D02*
X155185714Y-88626247D01*
X155185714Y-88626247D02*
X155138095Y-88531009D01*
X155138095Y-88531009D02*
X155090476Y-88483390D01*
X155090476Y-88483390D02*
X154995238Y-88435771D01*
X154995238Y-88435771D02*
X154804762Y-88435771D01*
X154804762Y-88435771D02*
X154709524Y-88483390D01*
X154709524Y-88483390D02*
X154661905Y-88531009D01*
X154661905Y-88531009D02*
X154614286Y-88626247D01*
X149866666Y-112254819D02*
X149866666Y-112969104D01*
X149866666Y-112969104D02*
X149819047Y-113111961D01*
X149819047Y-113111961D02*
X149723809Y-113207200D01*
X149723809Y-113207200D02*
X149580952Y-113254819D01*
X149580952Y-113254819D02*
X149485714Y-113254819D01*
X150390476Y-113254819D02*
X150580952Y-113254819D01*
X150580952Y-113254819D02*
X150676190Y-113207200D01*
X150676190Y-113207200D02*
X150723809Y-113159580D01*
X150723809Y-113159580D02*
X150819047Y-113016723D01*
X150819047Y-113016723D02*
X150866666Y-112826247D01*
X150866666Y-112826247D02*
X150866666Y-112445295D01*
X150866666Y-112445295D02*
X150819047Y-112350057D01*
X150819047Y-112350057D02*
X150771428Y-112302438D01*
X150771428Y-112302438D02*
X150676190Y-112254819D01*
X150676190Y-112254819D02*
X150485714Y-112254819D01*
X150485714Y-112254819D02*
X150390476Y-112302438D01*
X150390476Y-112302438D02*
X150342857Y-112350057D01*
X150342857Y-112350057D02*
X150295238Y-112445295D01*
X150295238Y-112445295D02*
X150295238Y-112683390D01*
X150295238Y-112683390D02*
X150342857Y-112778628D01*
X150342857Y-112778628D02*
X150390476Y-112826247D01*
X150390476Y-112826247D02*
X150485714Y-112873866D01*
X150485714Y-112873866D02*
X150676190Y-112873866D01*
X150676190Y-112873866D02*
X150771428Y-112826247D01*
X150771428Y-112826247D02*
X150819047Y-112778628D01*
X150819047Y-112778628D02*
X150866666Y-112683390D01*
X104416666Y-71004819D02*
X104416666Y-71719104D01*
X104416666Y-71719104D02*
X104369047Y-71861961D01*
X104369047Y-71861961D02*
X104273809Y-71957200D01*
X104273809Y-71957200D02*
X104130952Y-72004819D01*
X104130952Y-72004819D02*
X104035714Y-72004819D01*
X105035714Y-71433390D02*
X104940476Y-71385771D01*
X104940476Y-71385771D02*
X104892857Y-71338152D01*
X104892857Y-71338152D02*
X104845238Y-71242914D01*
X104845238Y-71242914D02*
X104845238Y-71195295D01*
X104845238Y-71195295D02*
X104892857Y-71100057D01*
X104892857Y-71100057D02*
X104940476Y-71052438D01*
X104940476Y-71052438D02*
X105035714Y-71004819D01*
X105035714Y-71004819D02*
X105226190Y-71004819D01*
X105226190Y-71004819D02*
X105321428Y-71052438D01*
X105321428Y-71052438D02*
X105369047Y-71100057D01*
X105369047Y-71100057D02*
X105416666Y-71195295D01*
X105416666Y-71195295D02*
X105416666Y-71242914D01*
X105416666Y-71242914D02*
X105369047Y-71338152D01*
X105369047Y-71338152D02*
X105321428Y-71385771D01*
X105321428Y-71385771D02*
X105226190Y-71433390D01*
X105226190Y-71433390D02*
X105035714Y-71433390D01*
X105035714Y-71433390D02*
X104940476Y-71481009D01*
X104940476Y-71481009D02*
X104892857Y-71528628D01*
X104892857Y-71528628D02*
X104845238Y-71623866D01*
X104845238Y-71623866D02*
X104845238Y-71814342D01*
X104845238Y-71814342D02*
X104892857Y-71909580D01*
X104892857Y-71909580D02*
X104940476Y-71957200D01*
X104940476Y-71957200D02*
X105035714Y-72004819D01*
X105035714Y-72004819D02*
X105226190Y-72004819D01*
X105226190Y-72004819D02*
X105321428Y-71957200D01*
X105321428Y-71957200D02*
X105369047Y-71909580D01*
X105369047Y-71909580D02*
X105416666Y-71814342D01*
X105416666Y-71814342D02*
X105416666Y-71623866D01*
X105416666Y-71623866D02*
X105369047Y-71528628D01*
X105369047Y-71528628D02*
X105321428Y-71481009D01*
X105321428Y-71481009D02*
X105226190Y-71433390D01*
X137019580Y-99162857D02*
X137067200Y-99210476D01*
X137067200Y-99210476D02*
X137114819Y-99353333D01*
X137114819Y-99353333D02*
X137114819Y-99448571D01*
X137114819Y-99448571D02*
X137067200Y-99591428D01*
X137067200Y-99591428D02*
X136971961Y-99686666D01*
X136971961Y-99686666D02*
X136876723Y-99734285D01*
X136876723Y-99734285D02*
X136686247Y-99781904D01*
X136686247Y-99781904D02*
X136543390Y-99781904D01*
X136543390Y-99781904D02*
X136352914Y-99734285D01*
X136352914Y-99734285D02*
X136257676Y-99686666D01*
X136257676Y-99686666D02*
X136162438Y-99591428D01*
X136162438Y-99591428D02*
X136114819Y-99448571D01*
X136114819Y-99448571D02*
X136114819Y-99353333D01*
X136114819Y-99353333D02*
X136162438Y-99210476D01*
X136162438Y-99210476D02*
X136210057Y-99162857D01*
X137114819Y-98210476D02*
X137114819Y-98781904D01*
X137114819Y-98496190D02*
X136114819Y-98496190D01*
X136114819Y-98496190D02*
X136257676Y-98591428D01*
X136257676Y-98591428D02*
X136352914Y-98686666D01*
X136352914Y-98686666D02*
X136400533Y-98781904D01*
X136448152Y-97353333D02*
X137114819Y-97353333D01*
X136067200Y-97591428D02*
X136781485Y-97829523D01*
X136781485Y-97829523D02*
X136781485Y-97210476D01*
X141866666Y-124654819D02*
X141866666Y-125369104D01*
X141866666Y-125369104D02*
X141819047Y-125511961D01*
X141819047Y-125511961D02*
X141723809Y-125607200D01*
X141723809Y-125607200D02*
X141580952Y-125654819D01*
X141580952Y-125654819D02*
X141485714Y-125654819D01*
X142295238Y-124750057D02*
X142342857Y-124702438D01*
X142342857Y-124702438D02*
X142438095Y-124654819D01*
X142438095Y-124654819D02*
X142676190Y-124654819D01*
X142676190Y-124654819D02*
X142771428Y-124702438D01*
X142771428Y-124702438D02*
X142819047Y-124750057D01*
X142819047Y-124750057D02*
X142866666Y-124845295D01*
X142866666Y-124845295D02*
X142866666Y-124940533D01*
X142866666Y-124940533D02*
X142819047Y-125083390D01*
X142819047Y-125083390D02*
X142247619Y-125654819D01*
X142247619Y-125654819D02*
X142866666Y-125654819D01*
X147216666Y-116304819D02*
X147216666Y-117019104D01*
X147216666Y-117019104D02*
X147169047Y-117161961D01*
X147169047Y-117161961D02*
X147073809Y-117257200D01*
X147073809Y-117257200D02*
X146930952Y-117304819D01*
X146930952Y-117304819D02*
X146835714Y-117304819D01*
X148121428Y-116638152D02*
X148121428Y-117304819D01*
X147883333Y-116257200D02*
X147645238Y-116971485D01*
X147645238Y-116971485D02*
X148264285Y-116971485D01*
X135809104Y-82064285D02*
X135809104Y-81588095D01*
X136094819Y-82159523D02*
X135094819Y-81826190D01*
X135094819Y-81826190D02*
X136094819Y-81492857D01*
X136094819Y-80635714D02*
X136094819Y-81207142D01*
X136094819Y-80921428D02*
X135094819Y-80921428D01*
X135094819Y-80921428D02*
X135237676Y-81016666D01*
X135237676Y-81016666D02*
X135332914Y-81111904D01*
X135332914Y-81111904D02*
X135380533Y-81207142D01*
X163066666Y-119054819D02*
X163066666Y-119769104D01*
X163066666Y-119769104D02*
X163019047Y-119911961D01*
X163019047Y-119911961D02*
X162923809Y-120007200D01*
X162923809Y-120007200D02*
X162780952Y-120054819D01*
X162780952Y-120054819D02*
X162685714Y-120054819D01*
X163971428Y-119054819D02*
X163780952Y-119054819D01*
X163780952Y-119054819D02*
X163685714Y-119102438D01*
X163685714Y-119102438D02*
X163638095Y-119150057D01*
X163638095Y-119150057D02*
X163542857Y-119292914D01*
X163542857Y-119292914D02*
X163495238Y-119483390D01*
X163495238Y-119483390D02*
X163495238Y-119864342D01*
X163495238Y-119864342D02*
X163542857Y-119959580D01*
X163542857Y-119959580D02*
X163590476Y-120007200D01*
X163590476Y-120007200D02*
X163685714Y-120054819D01*
X163685714Y-120054819D02*
X163876190Y-120054819D01*
X163876190Y-120054819D02*
X163971428Y-120007200D01*
X163971428Y-120007200D02*
X164019047Y-119959580D01*
X164019047Y-119959580D02*
X164066666Y-119864342D01*
X164066666Y-119864342D02*
X164066666Y-119626247D01*
X164066666Y-119626247D02*
X164019047Y-119531009D01*
X164019047Y-119531009D02*
X163971428Y-119483390D01*
X163971428Y-119483390D02*
X163876190Y-119435771D01*
X163876190Y-119435771D02*
X163685714Y-119435771D01*
X163685714Y-119435771D02*
X163590476Y-119483390D01*
X163590476Y-119483390D02*
X163542857Y-119531009D01*
X163542857Y-119531009D02*
X163495238Y-119626247D01*
X158954819Y-101566666D02*
X158478628Y-101899999D01*
X158954819Y-102138094D02*
X157954819Y-102138094D01*
X157954819Y-102138094D02*
X157954819Y-101757142D01*
X157954819Y-101757142D02*
X158002438Y-101661904D01*
X158002438Y-101661904D02*
X158050057Y-101614285D01*
X158050057Y-101614285D02*
X158145295Y-101566666D01*
X158145295Y-101566666D02*
X158288152Y-101566666D01*
X158288152Y-101566666D02*
X158383390Y-101614285D01*
X158383390Y-101614285D02*
X158431009Y-101661904D01*
X158431009Y-101661904D02*
X158478628Y-101757142D01*
X158478628Y-101757142D02*
X158478628Y-102138094D01*
X157954819Y-101233332D02*
X157954819Y-100566666D01*
X157954819Y-100566666D02*
X158954819Y-100995237D01*
X92707142Y-72759580D02*
X92659523Y-72807200D01*
X92659523Y-72807200D02*
X92516666Y-72854819D01*
X92516666Y-72854819D02*
X92421428Y-72854819D01*
X92421428Y-72854819D02*
X92278571Y-72807200D01*
X92278571Y-72807200D02*
X92183333Y-72711961D01*
X92183333Y-72711961D02*
X92135714Y-72616723D01*
X92135714Y-72616723D02*
X92088095Y-72426247D01*
X92088095Y-72426247D02*
X92088095Y-72283390D01*
X92088095Y-72283390D02*
X92135714Y-72092914D01*
X92135714Y-72092914D02*
X92183333Y-71997676D01*
X92183333Y-71997676D02*
X92278571Y-71902438D01*
X92278571Y-71902438D02*
X92421428Y-71854819D01*
X92421428Y-71854819D02*
X92516666Y-71854819D01*
X92516666Y-71854819D02*
X92659523Y-71902438D01*
X92659523Y-71902438D02*
X92707142Y-71950057D01*
X93659523Y-72854819D02*
X93088095Y-72854819D01*
X93373809Y-72854819D02*
X93373809Y-71854819D01*
X93373809Y-71854819D02*
X93278571Y-71997676D01*
X93278571Y-71997676D02*
X93183333Y-72092914D01*
X93183333Y-72092914D02*
X93088095Y-72140533D01*
X94516666Y-71854819D02*
X94326190Y-71854819D01*
X94326190Y-71854819D02*
X94230952Y-71902438D01*
X94230952Y-71902438D02*
X94183333Y-71950057D01*
X94183333Y-71950057D02*
X94088095Y-72092914D01*
X94088095Y-72092914D02*
X94040476Y-72283390D01*
X94040476Y-72283390D02*
X94040476Y-72664342D01*
X94040476Y-72664342D02*
X94088095Y-72759580D01*
X94088095Y-72759580D02*
X94135714Y-72807200D01*
X94135714Y-72807200D02*
X94230952Y-72854819D01*
X94230952Y-72854819D02*
X94421428Y-72854819D01*
X94421428Y-72854819D02*
X94516666Y-72807200D01*
X94516666Y-72807200D02*
X94564285Y-72759580D01*
X94564285Y-72759580D02*
X94611904Y-72664342D01*
X94611904Y-72664342D02*
X94611904Y-72426247D01*
X94611904Y-72426247D02*
X94564285Y-72331009D01*
X94564285Y-72331009D02*
X94516666Y-72283390D01*
X94516666Y-72283390D02*
X94421428Y-72235771D01*
X94421428Y-72235771D02*
X94230952Y-72235771D01*
X94230952Y-72235771D02*
X94135714Y-72283390D01*
X94135714Y-72283390D02*
X94088095Y-72331009D01*
X94088095Y-72331009D02*
X94040476Y-72426247D01*
X162261905Y-89054819D02*
X162261905Y-88054819D01*
X162261905Y-88054819D02*
X162500000Y-88054819D01*
X162500000Y-88054819D02*
X162642857Y-88102438D01*
X162642857Y-88102438D02*
X162738095Y-88197676D01*
X162738095Y-88197676D02*
X162785714Y-88292914D01*
X162785714Y-88292914D02*
X162833333Y-88483390D01*
X162833333Y-88483390D02*
X162833333Y-88626247D01*
X162833333Y-88626247D02*
X162785714Y-88816723D01*
X162785714Y-88816723D02*
X162738095Y-88911961D01*
X162738095Y-88911961D02*
X162642857Y-89007200D01*
X162642857Y-89007200D02*
X162500000Y-89054819D01*
X162500000Y-89054819D02*
X162261905Y-89054819D01*
X163214286Y-88150057D02*
X163261905Y-88102438D01*
X163261905Y-88102438D02*
X163357143Y-88054819D01*
X163357143Y-88054819D02*
X163595238Y-88054819D01*
X163595238Y-88054819D02*
X163690476Y-88102438D01*
X163690476Y-88102438D02*
X163738095Y-88150057D01*
X163738095Y-88150057D02*
X163785714Y-88245295D01*
X163785714Y-88245295D02*
X163785714Y-88340533D01*
X163785714Y-88340533D02*
X163738095Y-88483390D01*
X163738095Y-88483390D02*
X163166667Y-89054819D01*
X163166667Y-89054819D02*
X163785714Y-89054819D01*
X141833333Y-108254819D02*
X141500000Y-107778628D01*
X141261905Y-108254819D02*
X141261905Y-107254819D01*
X141261905Y-107254819D02*
X141642857Y-107254819D01*
X141642857Y-107254819D02*
X141738095Y-107302438D01*
X141738095Y-107302438D02*
X141785714Y-107350057D01*
X141785714Y-107350057D02*
X141833333Y-107445295D01*
X141833333Y-107445295D02*
X141833333Y-107588152D01*
X141833333Y-107588152D02*
X141785714Y-107683390D01*
X141785714Y-107683390D02*
X141738095Y-107731009D01*
X141738095Y-107731009D02*
X141642857Y-107778628D01*
X141642857Y-107778628D02*
X141261905Y-107778628D01*
X142785714Y-108254819D02*
X142214286Y-108254819D01*
X142500000Y-108254819D02*
X142500000Y-107254819D01*
X142500000Y-107254819D02*
X142404762Y-107397676D01*
X142404762Y-107397676D02*
X142309524Y-107492914D01*
X142309524Y-107492914D02*
X142214286Y-107540533D01*
X126666666Y-98631009D02*
X126333333Y-98631009D01*
X126333333Y-99154819D02*
X126333333Y-98154819D01*
X126333333Y-98154819D02*
X126809523Y-98154819D01*
X127523809Y-98631009D02*
X127666666Y-98678628D01*
X127666666Y-98678628D02*
X127714285Y-98726247D01*
X127714285Y-98726247D02*
X127761904Y-98821485D01*
X127761904Y-98821485D02*
X127761904Y-98964342D01*
X127761904Y-98964342D02*
X127714285Y-99059580D01*
X127714285Y-99059580D02*
X127666666Y-99107200D01*
X127666666Y-99107200D02*
X127571428Y-99154819D01*
X127571428Y-99154819D02*
X127190476Y-99154819D01*
X127190476Y-99154819D02*
X127190476Y-98154819D01*
X127190476Y-98154819D02*
X127523809Y-98154819D01*
X127523809Y-98154819D02*
X127619047Y-98202438D01*
X127619047Y-98202438D02*
X127666666Y-98250057D01*
X127666666Y-98250057D02*
X127714285Y-98345295D01*
X127714285Y-98345295D02*
X127714285Y-98440533D01*
X127714285Y-98440533D02*
X127666666Y-98535771D01*
X127666666Y-98535771D02*
X127619047Y-98583390D01*
X127619047Y-98583390D02*
X127523809Y-98631009D01*
X127523809Y-98631009D02*
X127190476Y-98631009D01*
X128714285Y-99154819D02*
X128142857Y-99154819D01*
X128428571Y-99154819D02*
X128428571Y-98154819D01*
X128428571Y-98154819D02*
X128333333Y-98297676D01*
X128333333Y-98297676D02*
X128238095Y-98392914D01*
X128238095Y-98392914D02*
X128142857Y-98440533D01*
X132159580Y-95942857D02*
X132207200Y-95990476D01*
X132207200Y-95990476D02*
X132254819Y-96133333D01*
X132254819Y-96133333D02*
X132254819Y-96228571D01*
X132254819Y-96228571D02*
X132207200Y-96371428D01*
X132207200Y-96371428D02*
X132111961Y-96466666D01*
X132111961Y-96466666D02*
X132016723Y-96514285D01*
X132016723Y-96514285D02*
X131826247Y-96561904D01*
X131826247Y-96561904D02*
X131683390Y-96561904D01*
X131683390Y-96561904D02*
X131492914Y-96514285D01*
X131492914Y-96514285D02*
X131397676Y-96466666D01*
X131397676Y-96466666D02*
X131302438Y-96371428D01*
X131302438Y-96371428D02*
X131254819Y-96228571D01*
X131254819Y-96228571D02*
X131254819Y-96133333D01*
X131254819Y-96133333D02*
X131302438Y-95990476D01*
X131302438Y-95990476D02*
X131350057Y-95942857D01*
X132254819Y-94990476D02*
X132254819Y-95561904D01*
X132254819Y-95276190D02*
X131254819Y-95276190D01*
X131254819Y-95276190D02*
X131397676Y-95371428D01*
X131397676Y-95371428D02*
X131492914Y-95466666D01*
X131492914Y-95466666D02*
X131540533Y-95561904D01*
X131254819Y-94371428D02*
X131254819Y-94276190D01*
X131254819Y-94276190D02*
X131302438Y-94180952D01*
X131302438Y-94180952D02*
X131350057Y-94133333D01*
X131350057Y-94133333D02*
X131445295Y-94085714D01*
X131445295Y-94085714D02*
X131635771Y-94038095D01*
X131635771Y-94038095D02*
X131873866Y-94038095D01*
X131873866Y-94038095D02*
X132064342Y-94085714D01*
X132064342Y-94085714D02*
X132159580Y-94133333D01*
X132159580Y-94133333D02*
X132207200Y-94180952D01*
X132207200Y-94180952D02*
X132254819Y-94276190D01*
X132254819Y-94276190D02*
X132254819Y-94371428D01*
X132254819Y-94371428D02*
X132207200Y-94466666D01*
X132207200Y-94466666D02*
X132159580Y-94514285D01*
X132159580Y-94514285D02*
X132064342Y-94561904D01*
X132064342Y-94561904D02*
X131873866Y-94609523D01*
X131873866Y-94609523D02*
X131635771Y-94609523D01*
X131635771Y-94609523D02*
X131445295Y-94561904D01*
X131445295Y-94561904D02*
X131350057Y-94514285D01*
X131350057Y-94514285D02*
X131302438Y-94466666D01*
X131302438Y-94466666D02*
X131254819Y-94371428D01*
X143766666Y-101884819D02*
X143766666Y-102599104D01*
X143766666Y-102599104D02*
X143719047Y-102741961D01*
X143719047Y-102741961D02*
X143623809Y-102837200D01*
X143623809Y-102837200D02*
X143480952Y-102884819D01*
X143480952Y-102884819D02*
X143385714Y-102884819D01*
X144242857Y-102884819D02*
X144242857Y-101884819D01*
X144242857Y-101884819D02*
X144623809Y-101884819D01*
X144623809Y-101884819D02*
X144719047Y-101932438D01*
X144719047Y-101932438D02*
X144766666Y-101980057D01*
X144766666Y-101980057D02*
X144814285Y-102075295D01*
X144814285Y-102075295D02*
X144814285Y-102218152D01*
X144814285Y-102218152D02*
X144766666Y-102313390D01*
X144766666Y-102313390D02*
X144719047Y-102361009D01*
X144719047Y-102361009D02*
X144623809Y-102408628D01*
X144623809Y-102408628D02*
X144242857Y-102408628D01*
X145766666Y-102884819D02*
X145195238Y-102884819D01*
X145480952Y-102884819D02*
X145480952Y-101884819D01*
X145480952Y-101884819D02*
X145385714Y-102027676D01*
X145385714Y-102027676D02*
X145290476Y-102122914D01*
X145290476Y-102122914D02*
X145195238Y-102170533D01*
X166433333Y-85559580D02*
X166385714Y-85607200D01*
X166385714Y-85607200D02*
X166242857Y-85654819D01*
X166242857Y-85654819D02*
X166147619Y-85654819D01*
X166147619Y-85654819D02*
X166004762Y-85607200D01*
X166004762Y-85607200D02*
X165909524Y-85511961D01*
X165909524Y-85511961D02*
X165861905Y-85416723D01*
X165861905Y-85416723D02*
X165814286Y-85226247D01*
X165814286Y-85226247D02*
X165814286Y-85083390D01*
X165814286Y-85083390D02*
X165861905Y-84892914D01*
X165861905Y-84892914D02*
X165909524Y-84797676D01*
X165909524Y-84797676D02*
X166004762Y-84702438D01*
X166004762Y-84702438D02*
X166147619Y-84654819D01*
X166147619Y-84654819D02*
X166242857Y-84654819D01*
X166242857Y-84654819D02*
X166385714Y-84702438D01*
X166385714Y-84702438D02*
X166433333Y-84750057D01*
X166814286Y-84750057D02*
X166861905Y-84702438D01*
X166861905Y-84702438D02*
X166957143Y-84654819D01*
X166957143Y-84654819D02*
X167195238Y-84654819D01*
X167195238Y-84654819D02*
X167290476Y-84702438D01*
X167290476Y-84702438D02*
X167338095Y-84750057D01*
X167338095Y-84750057D02*
X167385714Y-84845295D01*
X167385714Y-84845295D02*
X167385714Y-84940533D01*
X167385714Y-84940533D02*
X167338095Y-85083390D01*
X167338095Y-85083390D02*
X166766667Y-85654819D01*
X166766667Y-85654819D02*
X167385714Y-85654819D01*
X139233333Y-88854819D02*
X138900000Y-88378628D01*
X138661905Y-88854819D02*
X138661905Y-87854819D01*
X138661905Y-87854819D02*
X139042857Y-87854819D01*
X139042857Y-87854819D02*
X139138095Y-87902438D01*
X139138095Y-87902438D02*
X139185714Y-87950057D01*
X139185714Y-87950057D02*
X139233333Y-88045295D01*
X139233333Y-88045295D02*
X139233333Y-88188152D01*
X139233333Y-88188152D02*
X139185714Y-88283390D01*
X139185714Y-88283390D02*
X139138095Y-88331009D01*
X139138095Y-88331009D02*
X139042857Y-88378628D01*
X139042857Y-88378628D02*
X138661905Y-88378628D01*
X140138095Y-87854819D02*
X139661905Y-87854819D01*
X139661905Y-87854819D02*
X139614286Y-88331009D01*
X139614286Y-88331009D02*
X139661905Y-88283390D01*
X139661905Y-88283390D02*
X139757143Y-88235771D01*
X139757143Y-88235771D02*
X139995238Y-88235771D01*
X139995238Y-88235771D02*
X140090476Y-88283390D01*
X140090476Y-88283390D02*
X140138095Y-88331009D01*
X140138095Y-88331009D02*
X140185714Y-88426247D01*
X140185714Y-88426247D02*
X140185714Y-88664342D01*
X140185714Y-88664342D02*
X140138095Y-88759580D01*
X140138095Y-88759580D02*
X140090476Y-88807200D01*
X140090476Y-88807200D02*
X139995238Y-88854819D01*
X139995238Y-88854819D02*
X139757143Y-88854819D01*
X139757143Y-88854819D02*
X139661905Y-88807200D01*
X139661905Y-88807200D02*
X139614286Y-88759580D01*
X169794819Y-79269523D02*
X170509104Y-79269523D01*
X170509104Y-79269523D02*
X170651961Y-79317142D01*
X170651961Y-79317142D02*
X170747200Y-79412380D01*
X170747200Y-79412380D02*
X170794819Y-79555237D01*
X170794819Y-79555237D02*
X170794819Y-79650475D01*
X170794819Y-78269523D02*
X170794819Y-78840951D01*
X170794819Y-78555237D02*
X169794819Y-78555237D01*
X169794819Y-78555237D02*
X169937676Y-78650475D01*
X169937676Y-78650475D02*
X170032914Y-78745713D01*
X170032914Y-78745713D02*
X170080533Y-78840951D01*
X169794819Y-77650475D02*
X169794819Y-77555237D01*
X169794819Y-77555237D02*
X169842438Y-77459999D01*
X169842438Y-77459999D02*
X169890057Y-77412380D01*
X169890057Y-77412380D02*
X169985295Y-77364761D01*
X169985295Y-77364761D02*
X170175771Y-77317142D01*
X170175771Y-77317142D02*
X170413866Y-77317142D01*
X170413866Y-77317142D02*
X170604342Y-77364761D01*
X170604342Y-77364761D02*
X170699580Y-77412380D01*
X170699580Y-77412380D02*
X170747200Y-77459999D01*
X170747200Y-77459999D02*
X170794819Y-77555237D01*
X170794819Y-77555237D02*
X170794819Y-77650475D01*
X170794819Y-77650475D02*
X170747200Y-77745713D01*
X170747200Y-77745713D02*
X170699580Y-77793332D01*
X170699580Y-77793332D02*
X170604342Y-77840951D01*
X170604342Y-77840951D02*
X170413866Y-77888570D01*
X170413866Y-77888570D02*
X170175771Y-77888570D01*
X170175771Y-77888570D02*
X169985295Y-77840951D01*
X169985295Y-77840951D02*
X169890057Y-77793332D01*
X169890057Y-77793332D02*
X169842438Y-77745713D01*
X169842438Y-77745713D02*
X169794819Y-77650475D01*
X160019580Y-106517857D02*
X160067200Y-106565476D01*
X160067200Y-106565476D02*
X160114819Y-106708333D01*
X160114819Y-106708333D02*
X160114819Y-106803571D01*
X160114819Y-106803571D02*
X160067200Y-106946428D01*
X160067200Y-106946428D02*
X159971961Y-107041666D01*
X159971961Y-107041666D02*
X159876723Y-107089285D01*
X159876723Y-107089285D02*
X159686247Y-107136904D01*
X159686247Y-107136904D02*
X159543390Y-107136904D01*
X159543390Y-107136904D02*
X159352914Y-107089285D01*
X159352914Y-107089285D02*
X159257676Y-107041666D01*
X159257676Y-107041666D02*
X159162438Y-106946428D01*
X159162438Y-106946428D02*
X159114819Y-106803571D01*
X159114819Y-106803571D02*
X159114819Y-106708333D01*
X159114819Y-106708333D02*
X159162438Y-106565476D01*
X159162438Y-106565476D02*
X159210057Y-106517857D01*
X160114819Y-105565476D02*
X160114819Y-106136904D01*
X160114819Y-105851190D02*
X159114819Y-105851190D01*
X159114819Y-105851190D02*
X159257676Y-105946428D01*
X159257676Y-105946428D02*
X159352914Y-106041666D01*
X159352914Y-106041666D02*
X159400533Y-106136904D01*
X159114819Y-105232142D02*
X159114819Y-104565476D01*
X159114819Y-104565476D02*
X160114819Y-104994047D01*
X83738095Y-64554819D02*
X83738095Y-63554819D01*
X83738095Y-64031009D02*
X84309523Y-64031009D01*
X84309523Y-64554819D02*
X84309523Y-63554819D01*
X85309523Y-64554819D02*
X84738095Y-64554819D01*
X85023809Y-64554819D02*
X85023809Y-63554819D01*
X85023809Y-63554819D02*
X84928571Y-63697676D01*
X84928571Y-63697676D02*
X84833333Y-63792914D01*
X84833333Y-63792914D02*
X84738095Y-63840533D01*
X126233333Y-109759580D02*
X126185714Y-109807200D01*
X126185714Y-109807200D02*
X126042857Y-109854819D01*
X126042857Y-109854819D02*
X125947619Y-109854819D01*
X125947619Y-109854819D02*
X125804762Y-109807200D01*
X125804762Y-109807200D02*
X125709524Y-109711961D01*
X125709524Y-109711961D02*
X125661905Y-109616723D01*
X125661905Y-109616723D02*
X125614286Y-109426247D01*
X125614286Y-109426247D02*
X125614286Y-109283390D01*
X125614286Y-109283390D02*
X125661905Y-109092914D01*
X125661905Y-109092914D02*
X125709524Y-108997676D01*
X125709524Y-108997676D02*
X125804762Y-108902438D01*
X125804762Y-108902438D02*
X125947619Y-108854819D01*
X125947619Y-108854819D02*
X126042857Y-108854819D01*
X126042857Y-108854819D02*
X126185714Y-108902438D01*
X126185714Y-108902438D02*
X126233333Y-108950057D01*
X127090476Y-108854819D02*
X126900000Y-108854819D01*
X126900000Y-108854819D02*
X126804762Y-108902438D01*
X126804762Y-108902438D02*
X126757143Y-108950057D01*
X126757143Y-108950057D02*
X126661905Y-109092914D01*
X126661905Y-109092914D02*
X126614286Y-109283390D01*
X126614286Y-109283390D02*
X126614286Y-109664342D01*
X126614286Y-109664342D02*
X126661905Y-109759580D01*
X126661905Y-109759580D02*
X126709524Y-109807200D01*
X126709524Y-109807200D02*
X126804762Y-109854819D01*
X126804762Y-109854819D02*
X126995238Y-109854819D01*
X126995238Y-109854819D02*
X127090476Y-109807200D01*
X127090476Y-109807200D02*
X127138095Y-109759580D01*
X127138095Y-109759580D02*
X127185714Y-109664342D01*
X127185714Y-109664342D02*
X127185714Y-109426247D01*
X127185714Y-109426247D02*
X127138095Y-109331009D01*
X127138095Y-109331009D02*
X127090476Y-109283390D01*
X127090476Y-109283390D02*
X126995238Y-109235771D01*
X126995238Y-109235771D02*
X126804762Y-109235771D01*
X126804762Y-109235771D02*
X126709524Y-109283390D01*
X126709524Y-109283390D02*
X126661905Y-109331009D01*
X126661905Y-109331009D02*
X126614286Y-109426247D01*
X84096666Y-114894819D02*
X84096666Y-115609104D01*
X84096666Y-115609104D02*
X84049047Y-115751961D01*
X84049047Y-115751961D02*
X83953809Y-115847200D01*
X83953809Y-115847200D02*
X83810952Y-115894819D01*
X83810952Y-115894819D02*
X83715714Y-115894819D01*
X84477619Y-114894819D02*
X85096666Y-114894819D01*
X85096666Y-114894819D02*
X84763333Y-115275771D01*
X84763333Y-115275771D02*
X84906190Y-115275771D01*
X84906190Y-115275771D02*
X85001428Y-115323390D01*
X85001428Y-115323390D02*
X85049047Y-115371009D01*
X85049047Y-115371009D02*
X85096666Y-115466247D01*
X85096666Y-115466247D02*
X85096666Y-115704342D01*
X85096666Y-115704342D02*
X85049047Y-115799580D01*
X85049047Y-115799580D02*
X85001428Y-115847200D01*
X85001428Y-115847200D02*
X84906190Y-115894819D01*
X84906190Y-115894819D02*
X84620476Y-115894819D01*
X84620476Y-115894819D02*
X84525238Y-115847200D01*
X84525238Y-115847200D02*
X84477619Y-115799580D01*
X133559580Y-95966666D02*
X133607200Y-96014285D01*
X133607200Y-96014285D02*
X133654819Y-96157142D01*
X133654819Y-96157142D02*
X133654819Y-96252380D01*
X133654819Y-96252380D02*
X133607200Y-96395237D01*
X133607200Y-96395237D02*
X133511961Y-96490475D01*
X133511961Y-96490475D02*
X133416723Y-96538094D01*
X133416723Y-96538094D02*
X133226247Y-96585713D01*
X133226247Y-96585713D02*
X133083390Y-96585713D01*
X133083390Y-96585713D02*
X132892914Y-96538094D01*
X132892914Y-96538094D02*
X132797676Y-96490475D01*
X132797676Y-96490475D02*
X132702438Y-96395237D01*
X132702438Y-96395237D02*
X132654819Y-96252380D01*
X132654819Y-96252380D02*
X132654819Y-96157142D01*
X132654819Y-96157142D02*
X132702438Y-96014285D01*
X132702438Y-96014285D02*
X132750057Y-95966666D01*
X133654819Y-95490475D02*
X133654819Y-95299999D01*
X133654819Y-95299999D02*
X133607200Y-95204761D01*
X133607200Y-95204761D02*
X133559580Y-95157142D01*
X133559580Y-95157142D02*
X133416723Y-95061904D01*
X133416723Y-95061904D02*
X133226247Y-95014285D01*
X133226247Y-95014285D02*
X132845295Y-95014285D01*
X132845295Y-95014285D02*
X132750057Y-95061904D01*
X132750057Y-95061904D02*
X132702438Y-95109523D01*
X132702438Y-95109523D02*
X132654819Y-95204761D01*
X132654819Y-95204761D02*
X132654819Y-95395237D01*
X132654819Y-95395237D02*
X132702438Y-95490475D01*
X132702438Y-95490475D02*
X132750057Y-95538094D01*
X132750057Y-95538094D02*
X132845295Y-95585713D01*
X132845295Y-95585713D02*
X133083390Y-95585713D01*
X133083390Y-95585713D02*
X133178628Y-95538094D01*
X133178628Y-95538094D02*
X133226247Y-95490475D01*
X133226247Y-95490475D02*
X133273866Y-95395237D01*
X133273866Y-95395237D02*
X133273866Y-95204761D01*
X133273866Y-95204761D02*
X133226247Y-95109523D01*
X133226247Y-95109523D02*
X133178628Y-95061904D01*
X133178628Y-95061904D02*
X133083390Y-95014285D01*
X128357142Y-96259580D02*
X128309523Y-96307200D01*
X128309523Y-96307200D02*
X128166666Y-96354819D01*
X128166666Y-96354819D02*
X128071428Y-96354819D01*
X128071428Y-96354819D02*
X127928571Y-96307200D01*
X127928571Y-96307200D02*
X127833333Y-96211961D01*
X127833333Y-96211961D02*
X127785714Y-96116723D01*
X127785714Y-96116723D02*
X127738095Y-95926247D01*
X127738095Y-95926247D02*
X127738095Y-95783390D01*
X127738095Y-95783390D02*
X127785714Y-95592914D01*
X127785714Y-95592914D02*
X127833333Y-95497676D01*
X127833333Y-95497676D02*
X127928571Y-95402438D01*
X127928571Y-95402438D02*
X128071428Y-95354819D01*
X128071428Y-95354819D02*
X128166666Y-95354819D01*
X128166666Y-95354819D02*
X128309523Y-95402438D01*
X128309523Y-95402438D02*
X128357142Y-95450057D01*
X129309523Y-96354819D02*
X128738095Y-96354819D01*
X129023809Y-96354819D02*
X129023809Y-95354819D01*
X129023809Y-95354819D02*
X128928571Y-95497676D01*
X128928571Y-95497676D02*
X128833333Y-95592914D01*
X128833333Y-95592914D02*
X128738095Y-95640533D01*
X129642857Y-95354819D02*
X130261904Y-95354819D01*
X130261904Y-95354819D02*
X129928571Y-95735771D01*
X129928571Y-95735771D02*
X130071428Y-95735771D01*
X130071428Y-95735771D02*
X130166666Y-95783390D01*
X130166666Y-95783390D02*
X130214285Y-95831009D01*
X130214285Y-95831009D02*
X130261904Y-95926247D01*
X130261904Y-95926247D02*
X130261904Y-96164342D01*
X130261904Y-96164342D02*
X130214285Y-96259580D01*
X130214285Y-96259580D02*
X130166666Y-96307200D01*
X130166666Y-96307200D02*
X130071428Y-96354819D01*
X130071428Y-96354819D02*
X129785714Y-96354819D01*
X129785714Y-96354819D02*
X129690476Y-96307200D01*
X129690476Y-96307200D02*
X129642857Y-96259580D01*
X174238095Y-117654819D02*
X174238095Y-116654819D01*
X174238095Y-117131009D02*
X174809523Y-117131009D01*
X174809523Y-117654819D02*
X174809523Y-116654819D01*
X175714285Y-116988152D02*
X175714285Y-117654819D01*
X175476190Y-116607200D02*
X175238095Y-117321485D01*
X175238095Y-117321485D02*
X175857142Y-117321485D01*
X112749104Y-81964285D02*
X112749104Y-81488095D01*
X113034819Y-82059523D02*
X112034819Y-81726190D01*
X112034819Y-81726190D02*
X113034819Y-81392857D01*
X112130057Y-81107142D02*
X112082438Y-81059523D01*
X112082438Y-81059523D02*
X112034819Y-80964285D01*
X112034819Y-80964285D02*
X112034819Y-80726190D01*
X112034819Y-80726190D02*
X112082438Y-80630952D01*
X112082438Y-80630952D02*
X112130057Y-80583333D01*
X112130057Y-80583333D02*
X112225295Y-80535714D01*
X112225295Y-80535714D02*
X112320533Y-80535714D01*
X112320533Y-80535714D02*
X112463390Y-80583333D01*
X112463390Y-80583333D02*
X113034819Y-81154761D01*
X113034819Y-81154761D02*
X113034819Y-80535714D01*
X140454819Y-106561904D02*
X141264342Y-106561904D01*
X141264342Y-106561904D02*
X141359580Y-106514285D01*
X141359580Y-106514285D02*
X141407200Y-106466666D01*
X141407200Y-106466666D02*
X141454819Y-106371428D01*
X141454819Y-106371428D02*
X141454819Y-106180952D01*
X141454819Y-106180952D02*
X141407200Y-106085714D01*
X141407200Y-106085714D02*
X141359580Y-106038095D01*
X141359580Y-106038095D02*
X141264342Y-105990476D01*
X141264342Y-105990476D02*
X140454819Y-105990476D01*
X141454819Y-104990476D02*
X141454819Y-105561904D01*
X141454819Y-105276190D02*
X140454819Y-105276190D01*
X140454819Y-105276190D02*
X140597676Y-105371428D01*
X140597676Y-105371428D02*
X140692914Y-105466666D01*
X140692914Y-105466666D02*
X140740533Y-105561904D01*
X120566666Y-116404819D02*
X120566666Y-117119104D01*
X120566666Y-117119104D02*
X120519047Y-117261961D01*
X120519047Y-117261961D02*
X120423809Y-117357200D01*
X120423809Y-117357200D02*
X120280952Y-117404819D01*
X120280952Y-117404819D02*
X120185714Y-117404819D01*
X121566666Y-117404819D02*
X120995238Y-117404819D01*
X121280952Y-117404819D02*
X121280952Y-116404819D01*
X121280952Y-116404819D02*
X121185714Y-116547676D01*
X121185714Y-116547676D02*
X121090476Y-116642914D01*
X121090476Y-116642914D02*
X120995238Y-116690533D01*
X83738095Y-117654819D02*
X83738095Y-116654819D01*
X83738095Y-117131009D02*
X84309523Y-117131009D01*
X84309523Y-117654819D02*
X84309523Y-116654819D01*
X84738095Y-116750057D02*
X84785714Y-116702438D01*
X84785714Y-116702438D02*
X84880952Y-116654819D01*
X84880952Y-116654819D02*
X85119047Y-116654819D01*
X85119047Y-116654819D02*
X85214285Y-116702438D01*
X85214285Y-116702438D02*
X85261904Y-116750057D01*
X85261904Y-116750057D02*
X85309523Y-116845295D01*
X85309523Y-116845295D02*
X85309523Y-116940533D01*
X85309523Y-116940533D02*
X85261904Y-117083390D01*
X85261904Y-117083390D02*
X84690476Y-117654819D01*
X84690476Y-117654819D02*
X85309523Y-117654819D01*
X140759580Y-109766666D02*
X140807200Y-109814285D01*
X140807200Y-109814285D02*
X140854819Y-109957142D01*
X140854819Y-109957142D02*
X140854819Y-110052380D01*
X140854819Y-110052380D02*
X140807200Y-110195237D01*
X140807200Y-110195237D02*
X140711961Y-110290475D01*
X140711961Y-110290475D02*
X140616723Y-110338094D01*
X140616723Y-110338094D02*
X140426247Y-110385713D01*
X140426247Y-110385713D02*
X140283390Y-110385713D01*
X140283390Y-110385713D02*
X140092914Y-110338094D01*
X140092914Y-110338094D02*
X139997676Y-110290475D01*
X139997676Y-110290475D02*
X139902438Y-110195237D01*
X139902438Y-110195237D02*
X139854819Y-110052380D01*
X139854819Y-110052380D02*
X139854819Y-109957142D01*
X139854819Y-109957142D02*
X139902438Y-109814285D01*
X139902438Y-109814285D02*
X139950057Y-109766666D01*
X139854819Y-109433332D02*
X139854819Y-108766666D01*
X139854819Y-108766666D02*
X140854819Y-109195237D01*
X162338095Y-91854819D02*
X162338095Y-92664342D01*
X162338095Y-92664342D02*
X162385714Y-92759580D01*
X162385714Y-92759580D02*
X162433333Y-92807200D01*
X162433333Y-92807200D02*
X162528571Y-92854819D01*
X162528571Y-92854819D02*
X162719047Y-92854819D01*
X162719047Y-92854819D02*
X162814285Y-92807200D01*
X162814285Y-92807200D02*
X162861904Y-92759580D01*
X162861904Y-92759580D02*
X162909523Y-92664342D01*
X162909523Y-92664342D02*
X162909523Y-91854819D01*
X163814285Y-92188152D02*
X163814285Y-92854819D01*
X163576190Y-91807200D02*
X163338095Y-92521485D01*
X163338095Y-92521485D02*
X163957142Y-92521485D01*
X144123809Y-92378628D02*
X144123809Y-92854819D01*
X143790476Y-91854819D02*
X144123809Y-92378628D01*
X144123809Y-92378628D02*
X144457142Y-91854819D01*
X145314285Y-92854819D02*
X144742857Y-92854819D01*
X145028571Y-92854819D02*
X145028571Y-91854819D01*
X145028571Y-91854819D02*
X144933333Y-91997676D01*
X144933333Y-91997676D02*
X144838095Y-92092914D01*
X144838095Y-92092914D02*
X144742857Y-92140533D01*
X91854819Y-104466666D02*
X91378628Y-104799999D01*
X91854819Y-105038094D02*
X90854819Y-105038094D01*
X90854819Y-105038094D02*
X90854819Y-104657142D01*
X90854819Y-104657142D02*
X90902438Y-104561904D01*
X90902438Y-104561904D02*
X90950057Y-104514285D01*
X90950057Y-104514285D02*
X91045295Y-104466666D01*
X91045295Y-104466666D02*
X91188152Y-104466666D01*
X91188152Y-104466666D02*
X91283390Y-104514285D01*
X91283390Y-104514285D02*
X91331009Y-104561904D01*
X91331009Y-104561904D02*
X91378628Y-104657142D01*
X91378628Y-104657142D02*
X91378628Y-105038094D01*
X90854819Y-104133332D02*
X90854819Y-103514285D01*
X90854819Y-103514285D02*
X91235771Y-103847618D01*
X91235771Y-103847618D02*
X91235771Y-103704761D01*
X91235771Y-103704761D02*
X91283390Y-103609523D01*
X91283390Y-103609523D02*
X91331009Y-103561904D01*
X91331009Y-103561904D02*
X91426247Y-103514285D01*
X91426247Y-103514285D02*
X91664342Y-103514285D01*
X91664342Y-103514285D02*
X91759580Y-103561904D01*
X91759580Y-103561904D02*
X91807200Y-103609523D01*
X91807200Y-103609523D02*
X91854819Y-103704761D01*
X91854819Y-103704761D02*
X91854819Y-103990475D01*
X91854819Y-103990475D02*
X91807200Y-104085713D01*
X91807200Y-104085713D02*
X91759580Y-104133332D01*
X109084819Y-106163333D02*
X109799104Y-106163333D01*
X109799104Y-106163333D02*
X109941961Y-106210952D01*
X109941961Y-106210952D02*
X110037200Y-106306190D01*
X110037200Y-106306190D02*
X110084819Y-106449047D01*
X110084819Y-106449047D02*
X110084819Y-106544285D01*
X109084819Y-105210952D02*
X109084819Y-105687142D01*
X109084819Y-105687142D02*
X109561009Y-105734761D01*
X109561009Y-105734761D02*
X109513390Y-105687142D01*
X109513390Y-105687142D02*
X109465771Y-105591904D01*
X109465771Y-105591904D02*
X109465771Y-105353809D01*
X109465771Y-105353809D02*
X109513390Y-105258571D01*
X109513390Y-105258571D02*
X109561009Y-105210952D01*
X109561009Y-105210952D02*
X109656247Y-105163333D01*
X109656247Y-105163333D02*
X109894342Y-105163333D01*
X109894342Y-105163333D02*
X109989580Y-105210952D01*
X109989580Y-105210952D02*
X110037200Y-105258571D01*
X110037200Y-105258571D02*
X110084819Y-105353809D01*
X110084819Y-105353809D02*
X110084819Y-105591904D01*
X110084819Y-105591904D02*
X110037200Y-105687142D01*
X110037200Y-105687142D02*
X109989580Y-105734761D01*
X150833333Y-84959580D02*
X150785714Y-85007200D01*
X150785714Y-85007200D02*
X150642857Y-85054819D01*
X150642857Y-85054819D02*
X150547619Y-85054819D01*
X150547619Y-85054819D02*
X150404762Y-85007200D01*
X150404762Y-85007200D02*
X150309524Y-84911961D01*
X150309524Y-84911961D02*
X150261905Y-84816723D01*
X150261905Y-84816723D02*
X150214286Y-84626247D01*
X150214286Y-84626247D02*
X150214286Y-84483390D01*
X150214286Y-84483390D02*
X150261905Y-84292914D01*
X150261905Y-84292914D02*
X150309524Y-84197676D01*
X150309524Y-84197676D02*
X150404762Y-84102438D01*
X150404762Y-84102438D02*
X150547619Y-84054819D01*
X150547619Y-84054819D02*
X150642857Y-84054819D01*
X150642857Y-84054819D02*
X150785714Y-84102438D01*
X150785714Y-84102438D02*
X150833333Y-84150057D01*
X151785714Y-85054819D02*
X151214286Y-85054819D01*
X151500000Y-85054819D02*
X151500000Y-84054819D01*
X151500000Y-84054819D02*
X151404762Y-84197676D01*
X151404762Y-84197676D02*
X151309524Y-84292914D01*
X151309524Y-84292914D02*
X151214286Y-84340533D01*
D13*
%TO.C,C15*%
X119320000Y-68000000D02*
G75*
G02*
X112780000Y-68000000I-3270000J0D01*
G01*
X112780000Y-68000000D02*
G75*
G02*
X119320000Y-68000000I3270000J0D01*
G01*
%TO.C,R2*%
X92220000Y-102343641D02*
X92220000Y-102036359D01*
X92980000Y-102343641D02*
X92980000Y-102036359D01*
%TO.C,C4*%
X141040000Y-102512164D02*
X141040000Y-102727836D01*
X141760000Y-102512164D02*
X141760000Y-102727836D01*
%TO.C,R8*%
X140616359Y-115720000D02*
X140923641Y-115720000D01*
X140616359Y-116480000D02*
X140923641Y-116480000D01*
%TO.C,Electrolytic1*%
X140240000Y-81640000D02*
X140240000Y-83340000D01*
X140240000Y-87160000D02*
X140240000Y-85460000D01*
X144695563Y-81640000D02*
X140240000Y-81640000D01*
X144695563Y-87160000D02*
X140240000Y-87160000D01*
X145760000Y-82704437D02*
X144695563Y-81640000D01*
X145760000Y-82704437D02*
X145760000Y-83340000D01*
X145760000Y-86095563D02*
X144695563Y-87160000D01*
X145760000Y-86095563D02*
X145760000Y-85460000D01*
X146312500Y-86397500D02*
X146312500Y-85772500D01*
X146625000Y-86085000D02*
X146000000Y-86085000D01*
%TO.C,U2*%
X141025000Y-74400000D02*
X141025000Y-75900000D01*
X141025000Y-75900000D02*
X142835000Y-75900000D01*
X151425000Y-74400000D02*
X151425000Y-75900000D01*
X151425000Y-75900000D02*
X149615000Y-75900000D01*
X142835000Y-78462500D02*
X142505000Y-78702500D01*
X142505000Y-78222500D01*
X142835000Y-78462500D01*
G36*
X142835000Y-78462500D02*
G01*
X142505000Y-78702500D01*
X142505000Y-78222500D01*
X142835000Y-78462500D01*
G37*
%TO.C,R4*%
X141120000Y-112246359D02*
X141120000Y-112553641D01*
X141880000Y-112246359D02*
X141880000Y-112553641D01*
%TO.C,D1*%
X143315000Y-87665000D02*
X143315000Y-89135000D01*
X143315000Y-89135000D02*
X145600000Y-89135000D01*
X145600000Y-87665000D02*
X143315000Y-87665000D01*
%TO.C,J7*%
X121740000Y-64390000D02*
X121740000Y-70360000D01*
X121740000Y-70360000D02*
X134360000Y-70360000D01*
X121750000Y-68100000D02*
X122500000Y-68100000D01*
X121750000Y-69600000D02*
X121750000Y-70350000D01*
X121750000Y-70350000D02*
X123550000Y-70350000D01*
X122500000Y-65150000D02*
X128050000Y-65150000D01*
X122500000Y-68100000D02*
X122500000Y-65150000D01*
X123550000Y-69600000D02*
X121750000Y-69600000D01*
X123550000Y-70350000D02*
X123550000Y-69600000D01*
X125050000Y-69600000D02*
X125050000Y-70350000D01*
X125050000Y-70350000D02*
X131050000Y-70350000D01*
X131050000Y-69600000D02*
X125050000Y-69600000D01*
X131050000Y-70350000D02*
X131050000Y-69600000D01*
X132550000Y-69600000D02*
X132550000Y-70350000D01*
X132550000Y-70350000D02*
X134350000Y-70350000D01*
X133400000Y-70650000D02*
X134650000Y-70650000D01*
X133600000Y-65150000D02*
X128050000Y-65150000D01*
X133600000Y-68100000D02*
X133600000Y-65150000D01*
X134350000Y-68100000D02*
X133600000Y-68100000D01*
X134350000Y-69600000D02*
X132550000Y-69600000D01*
X134350000Y-70350000D02*
X134350000Y-69600000D01*
X134360000Y-64390000D02*
X121740000Y-64390000D01*
X134360000Y-70360000D02*
X134360000Y-64390000D01*
X134650000Y-70650000D02*
X134650000Y-69400000D01*
%TO.C,C5*%
X138492164Y-99277500D02*
X138707836Y-99277500D01*
X138492164Y-99997500D02*
X138707836Y-99997500D01*
%TO.C,C3*%
X129641252Y-109525000D02*
X129118748Y-109525000D01*
X129641252Y-110995000D02*
X129118748Y-110995000D01*
%TO.C,U3*%
X156465000Y-74400000D02*
X156465000Y-75900000D01*
X156465000Y-75900000D02*
X158275000Y-75900000D01*
X166865000Y-74400000D02*
X166865000Y-75900000D01*
X166865000Y-75900000D02*
X165055000Y-75900000D01*
X158275000Y-78462500D02*
X157945000Y-78702500D01*
X157945000Y-78222500D01*
X158275000Y-78462500D01*
G36*
X158275000Y-78462500D02*
G01*
X157945000Y-78702500D01*
X157945000Y-78222500D01*
X158275000Y-78462500D01*
G37*
%TO.C,R6*%
X157631141Y-88220000D02*
X157323859Y-88220000D01*
X157631141Y-88980000D02*
X157323859Y-88980000D01*
%TO.C,J9*%
X143205000Y-113370000D02*
X143205000Y-116030000D01*
X145805000Y-113370000D02*
X143205000Y-113370000D01*
X145805000Y-113370000D02*
X145805000Y-116030000D01*
X145805000Y-116030000D02*
X143205000Y-116030000D01*
X147075000Y-113370000D02*
X148405000Y-113370000D01*
X148405000Y-113370000D02*
X148405000Y-114700000D01*
%TO.C,J8*%
X98440000Y-64490000D02*
X98440000Y-70460000D01*
X98440000Y-70460000D02*
X111060000Y-70460000D01*
X98450000Y-68200000D02*
X99200000Y-68200000D01*
X98450000Y-69700000D02*
X98450000Y-70450000D01*
X98450000Y-70450000D02*
X100250000Y-70450000D01*
X99200000Y-65250000D02*
X104750000Y-65250000D01*
X99200000Y-68200000D02*
X99200000Y-65250000D01*
X100250000Y-69700000D02*
X98450000Y-69700000D01*
X100250000Y-70450000D02*
X100250000Y-69700000D01*
X101750000Y-69700000D02*
X101750000Y-70450000D01*
X101750000Y-70450000D02*
X107750000Y-70450000D01*
X107750000Y-69700000D02*
X101750000Y-69700000D01*
X107750000Y-70450000D02*
X107750000Y-69700000D01*
X109250000Y-69700000D02*
X109250000Y-70450000D01*
X109250000Y-70450000D02*
X111050000Y-70450000D01*
X110100000Y-70750000D02*
X111350000Y-70750000D01*
X110300000Y-65250000D02*
X104750000Y-65250000D01*
X110300000Y-68200000D02*
X110300000Y-65250000D01*
X111050000Y-68200000D02*
X110300000Y-68200000D01*
X111050000Y-69700000D02*
X109250000Y-69700000D01*
X111050000Y-70450000D02*
X111050000Y-69700000D01*
X111060000Y-64490000D02*
X98440000Y-64490000D01*
X111060000Y-70460000D02*
X111060000Y-64490000D01*
X111350000Y-70750000D02*
X111350000Y-69500000D01*
%TO.C,C14*%
X135140000Y-98712164D02*
X135140000Y-98927836D01*
X135860000Y-98712164D02*
X135860000Y-98927836D01*
%TO.C,J2*%
X127190000Y-117650000D02*
X127190000Y-118900000D01*
X127480000Y-117940000D02*
X127480000Y-123910000D01*
X127480000Y-123910000D02*
X142600000Y-123910000D01*
X127490000Y-117950000D02*
X127490000Y-118700000D01*
X127490000Y-118700000D02*
X129290000Y-118700000D01*
X127490000Y-120200000D02*
X128240000Y-120200000D01*
X128240000Y-120200000D02*
X128240000Y-123150000D01*
X128240000Y-123150000D02*
X135040000Y-123150000D01*
X128440000Y-117650000D02*
X127190000Y-117650000D01*
X129290000Y-117950000D02*
X127490000Y-117950000D01*
X129290000Y-118700000D02*
X129290000Y-117950000D01*
X130790000Y-117950000D02*
X130790000Y-118700000D01*
X130790000Y-118700000D02*
X139290000Y-118700000D01*
X139290000Y-117950000D02*
X130790000Y-117950000D01*
X139290000Y-118700000D02*
X139290000Y-117950000D01*
X140790000Y-117950000D02*
X140790000Y-118700000D01*
X140790000Y-118700000D02*
X142590000Y-118700000D01*
X141840000Y-120200000D02*
X141840000Y-123150000D01*
X141840000Y-123150000D02*
X135040000Y-123150000D01*
X142590000Y-117950000D02*
X140790000Y-117950000D01*
X142590000Y-118700000D02*
X142590000Y-117950000D01*
X142590000Y-120200000D02*
X141840000Y-120200000D01*
X142600000Y-117940000D02*
X127480000Y-117940000D01*
X142600000Y-123910000D02*
X142600000Y-117940000D01*
%TO.C,J4*%
X143450000Y-117650000D02*
X143450000Y-118900000D01*
X143740000Y-117940000D02*
X143740000Y-123910000D01*
X143740000Y-123910000D02*
X151360000Y-123910000D01*
X143750000Y-117950000D02*
X143750000Y-118700000D01*
X143750000Y-118700000D02*
X145550000Y-118700000D01*
X143750000Y-120200000D02*
X144500000Y-120200000D01*
X144500000Y-120200000D02*
X144500000Y-123150000D01*
X144500000Y-123150000D02*
X147550000Y-123150000D01*
X144700000Y-117650000D02*
X143450000Y-117650000D01*
X145550000Y-117950000D02*
X143750000Y-117950000D01*
X145550000Y-118700000D02*
X145550000Y-117950000D01*
X147050000Y-117950000D02*
X147050000Y-118700000D01*
X147050000Y-118700000D02*
X148050000Y-118700000D01*
X148050000Y-117950000D02*
X147050000Y-117950000D01*
X148050000Y-118700000D02*
X148050000Y-117950000D01*
X149550000Y-117950000D02*
X149550000Y-118700000D01*
X149550000Y-118700000D02*
X151350000Y-118700000D01*
X150600000Y-120200000D02*
X150600000Y-123150000D01*
X150600000Y-123150000D02*
X147550000Y-123150000D01*
X151350000Y-117950000D02*
X149550000Y-117950000D01*
X151350000Y-118700000D02*
X151350000Y-117950000D01*
X151350000Y-120200000D02*
X150600000Y-120200000D01*
X151360000Y-117940000D02*
X143740000Y-117940000D01*
X151360000Y-123910000D02*
X151360000Y-117940000D01*
%TO.C,A1*%
X113920000Y-73600000D02*
X113920000Y-89100000D01*
X113920000Y-89100000D02*
X134500000Y-89100000D01*
X131830000Y-73600000D02*
X113920000Y-73600000D01*
X131830000Y-76270000D02*
X113920000Y-76270000D01*
X131830000Y-76270000D02*
X131830000Y-73600000D01*
X134500000Y-73600000D02*
X133100000Y-73600000D01*
X134500000Y-75000000D02*
X134500000Y-73600000D01*
X134500000Y-76270000D02*
X131830000Y-76270000D01*
X134500000Y-86430000D02*
X113920000Y-86430000D01*
X134500000Y-89100000D02*
X134500000Y-76270000D01*
D12*
%TO.C,J6*%
X155175000Y-123000000D02*
X155175000Y-124400000D01*
X157525000Y-120825000D02*
X157525000Y-121250000D01*
X157525000Y-121250000D02*
X156525000Y-121250000D01*
X158250000Y-120825000D02*
X157525000Y-120825000D01*
X161125000Y-121250000D02*
X162125000Y-121250000D01*
X163475000Y-124400000D02*
X163475000Y-123000000D01*
D13*
%TO.C,R9*%
X138016359Y-115720000D02*
X138323641Y-115720000D01*
X138016359Y-116480000D02*
X138323641Y-116480000D01*
%TO.C,Electrolytic2*%
X155840000Y-81840000D02*
X155840000Y-83540000D01*
X155840000Y-87360000D02*
X155840000Y-85660000D01*
X160295563Y-81840000D02*
X155840000Y-81840000D01*
X160295563Y-87360000D02*
X155840000Y-87360000D01*
X161360000Y-82904437D02*
X160295563Y-81840000D01*
X161360000Y-82904437D02*
X161360000Y-83540000D01*
X161360000Y-86295563D02*
X160295563Y-87360000D01*
X161360000Y-86295563D02*
X161360000Y-85660000D01*
X161912500Y-86597500D02*
X161912500Y-85972500D01*
X162225000Y-86285000D02*
X161600000Y-86285000D01*
%TO.C,R7*%
X158120000Y-103266359D02*
X158120000Y-103573641D01*
X158880000Y-103266359D02*
X158880000Y-103573641D01*
%TO.C,C16*%
X96620000Y-68000000D02*
G75*
G02*
X90080000Y-68000000I-3270000J0D01*
G01*
X90080000Y-68000000D02*
G75*
G02*
X96620000Y-68000000I3270000J0D01*
G01*
%TO.C,D2*%
X158702500Y-87865000D02*
X158702500Y-89335000D01*
X158702500Y-89335000D02*
X160987500Y-89335000D01*
X160987500Y-87865000D02*
X158702500Y-87865000D01*
%TO.C,R1*%
X141720000Y-105056359D02*
X141720000Y-105363641D01*
X142480000Y-105056359D02*
X142480000Y-105363641D01*
%TO.C,FB1*%
X130349721Y-98190000D02*
X130675279Y-98190000D01*
X130349721Y-99210000D02*
X130675279Y-99210000D01*
%TO.C,R10*%
X135516359Y-115720000D02*
X135823641Y-115720000D01*
X135516359Y-116480000D02*
X135823641Y-116480000D01*
%TO.C,C10*%
X132340000Y-98927836D02*
X132340000Y-98712164D01*
X133060000Y-98927836D02*
X133060000Y-98712164D01*
%TO.C,JP1*%
X143270000Y-103430000D02*
X144600000Y-103430000D01*
X143270000Y-104760000D02*
X143270000Y-103430000D01*
X143270000Y-106030000D02*
X143270000Y-108630000D01*
X143270000Y-106030000D02*
X145930000Y-106030000D01*
X143270000Y-108630000D02*
X145930000Y-108630000D01*
X145930000Y-106030000D02*
X145930000Y-108630000D01*
%TO.C,C2*%
X163455000Y-83438748D02*
X163455000Y-83961252D01*
X164925000Y-83438748D02*
X164925000Y-83961252D01*
%TO.C,R5*%
X142338641Y-88020000D02*
X142031359Y-88020000D01*
X142338641Y-88780000D02*
X142031359Y-88780000D01*
%TO.C,J10*%
X171340000Y-73320000D02*
X179910000Y-73320000D01*
X171340000Y-83600000D02*
X171340000Y-73320000D01*
X171340000Y-83600000D02*
X179910000Y-83600000D01*
X171400000Y-74670000D02*
X172400000Y-74670000D01*
X171400000Y-77170000D02*
X171400000Y-74670000D01*
X171400000Y-77170000D02*
X172400000Y-77170000D01*
X171400000Y-79750000D02*
X172400000Y-79750000D01*
X171400000Y-82250000D02*
X171400000Y-79750000D01*
X171400000Y-82250000D02*
X172400000Y-82250000D01*
X172400000Y-77170000D02*
X172400000Y-74670000D01*
X172400000Y-82250000D02*
X172400000Y-79750000D01*
X173250000Y-83600000D02*
X173250000Y-73320000D01*
X174715000Y-75009000D02*
X174755000Y-75049000D01*
X174890000Y-74835000D02*
X174949000Y-74895000D01*
X176650000Y-76944000D02*
X176710000Y-77004000D01*
X176845000Y-76790000D02*
X176885000Y-76830000D01*
X178250000Y-83600000D02*
X178250000Y-73320000D01*
X179350000Y-83600000D02*
X179350000Y-73320000D01*
X179410000Y-83840000D02*
X180150000Y-83840000D01*
X179910000Y-83600000D02*
X179910000Y-73320000D01*
X180150000Y-83840000D02*
X180150000Y-83340000D01*
X174514177Y-81627362D02*
G75*
G02*
X174514000Y-80373000I1285853J627362D01*
G01*
X175172638Y-79714177D02*
G75*
G02*
X176427000Y-79714000I627362J-1285829D01*
G01*
X176426746Y-82286611D02*
G75*
G02*
X175172000Y-82286000I-626747J1286610D01*
G01*
X177085275Y-80373129D02*
G75*
G02*
X177230000Y-81000000I-1285276J-626872D01*
G01*
X177230940Y-80975720D02*
G75*
G02*
X177086000Y-81628000I-1430940J-24280D01*
G01*
X177230000Y-75920000D02*
G75*
G02*
X174370000Y-75920000I-1430000J0D01*
G01*
X174370000Y-75920000D02*
G75*
G02*
X177230000Y-75920000I1430000J0D01*
G01*
%TO.C,C11*%
X138072164Y-95740000D02*
X138287836Y-95740000D01*
X138072164Y-96460000D02*
X138287836Y-96460000D01*
%TO.C,C17*%
X158140000Y-105767164D02*
X158140000Y-105982836D01*
X158860000Y-105767164D02*
X158860000Y-105982836D01*
%TO.C,C6*%
X128987836Y-108150000D02*
X128772164Y-108150000D01*
X128987836Y-108870000D02*
X128772164Y-108870000D01*
%TO.C,J3*%
X79870000Y-96510000D02*
X88990000Y-96510000D01*
X79870000Y-114550000D02*
X79870000Y-96510000D01*
X81180000Y-97810000D02*
X87680000Y-97810000D01*
X81180000Y-113250000D02*
X81180000Y-97810000D01*
X87680000Y-97810000D02*
X87680000Y-103480000D01*
X87680000Y-103480000D02*
X87680000Y-103480000D01*
X87680000Y-103480000D02*
X88990000Y-103480000D01*
X87680000Y-107580000D02*
X87680000Y-113250000D01*
X87680000Y-113250000D02*
X81180000Y-113250000D01*
X88990000Y-96510000D02*
X88990000Y-114550000D01*
X88990000Y-107580000D02*
X87680000Y-107580000D01*
X88990000Y-114550000D02*
X79870000Y-114550000D01*
X89380000Y-109340000D02*
X90380000Y-109840000D01*
X90380000Y-108840000D02*
X89380000Y-109340000D01*
X90380000Y-109840000D02*
X90380000Y-108840000D01*
%TO.C,C9*%
X133440000Y-98927836D02*
X133440000Y-98712164D01*
X134160000Y-98927836D02*
X134160000Y-98712164D01*
%TO.C,C13*%
X130112164Y-96840000D02*
X130327836Y-96840000D01*
X130112164Y-97560000D02*
X130327836Y-97560000D01*
%TO.C,A2*%
X90860000Y-73500000D02*
X90860000Y-89000000D01*
X90860000Y-89000000D02*
X111440000Y-89000000D01*
X108770000Y-73500000D02*
X90860000Y-73500000D01*
X108770000Y-76170000D02*
X90860000Y-76170000D01*
X108770000Y-76170000D02*
X108770000Y-73500000D01*
X111440000Y-73500000D02*
X110040000Y-73500000D01*
X111440000Y-74900000D02*
X111440000Y-73500000D01*
X111440000Y-76170000D02*
X108770000Y-76170000D01*
X111440000Y-86330000D02*
X90860000Y-86330000D01*
X111440000Y-89000000D02*
X111440000Y-76170000D01*
%TO.C,U1*%
X131740000Y-101827500D02*
X132190000Y-101827500D01*
X131740000Y-102277500D02*
X131740000Y-101827500D01*
X131740000Y-108597500D02*
X131740000Y-109047500D01*
X131740000Y-109047500D02*
X132190000Y-109047500D01*
X138960000Y-101827500D02*
X138510000Y-101827500D01*
X138960000Y-102277500D02*
X138960000Y-101827500D01*
X138960000Y-108597500D02*
X138960000Y-109047500D01*
X138960000Y-109047500D02*
X138510000Y-109047500D01*
X138980000Y-101577500D02*
X138510000Y-101237500D01*
X138980000Y-100897500D01*
X138980000Y-101577500D01*
G36*
X138980000Y-101577500D02*
G01*
X138510000Y-101237500D01*
X138980000Y-100897500D01*
X138980000Y-101577500D01*
G37*
%TO.C,J1*%
X115550000Y-117750000D02*
X115550000Y-119000000D01*
X115840000Y-118040000D02*
X115840000Y-124010000D01*
X115840000Y-124010000D02*
X125960000Y-124010000D01*
X115850000Y-118050000D02*
X115850000Y-118800000D01*
X115850000Y-118800000D02*
X117650000Y-118800000D01*
X115850000Y-120300000D02*
X116600000Y-120300000D01*
X116600000Y-120300000D02*
X116600000Y-123250000D01*
X116600000Y-123250000D02*
X120900000Y-123250000D01*
X116800000Y-117750000D02*
X115550000Y-117750000D01*
X117650000Y-118050000D02*
X115850000Y-118050000D01*
X117650000Y-118800000D02*
X117650000Y-118050000D01*
X119150000Y-118050000D02*
X119150000Y-118800000D01*
X119150000Y-118800000D02*
X122650000Y-118800000D01*
X122650000Y-118050000D02*
X119150000Y-118050000D01*
X122650000Y-118800000D02*
X122650000Y-118050000D01*
X124150000Y-118050000D02*
X124150000Y-118800000D01*
X124150000Y-118800000D02*
X125950000Y-118800000D01*
X125200000Y-120300000D02*
X125200000Y-123250000D01*
X125200000Y-123250000D02*
X120900000Y-123250000D01*
X125950000Y-118050000D02*
X124150000Y-118050000D01*
X125950000Y-118800000D02*
X125950000Y-118050000D01*
X125950000Y-120300000D02*
X125200000Y-120300000D01*
X125960000Y-118040000D02*
X115840000Y-118040000D01*
X125960000Y-124010000D02*
X125960000Y-118040000D01*
%TO.C,C12*%
X136287836Y-95740000D02*
X136072164Y-95740000D01*
X136287836Y-96460000D02*
X136072164Y-96460000D01*
%TO.C,C7*%
X138840000Y-111112164D02*
X138840000Y-111327836D01*
X139560000Y-111112164D02*
X139560000Y-111327836D01*
%TO.C,U4*%
X160250000Y-109450000D02*
X160250000Y-108180000D01*
X160500000Y-93600000D02*
X168500000Y-93600000D01*
X160500000Y-109200000D02*
X160500000Y-93600000D01*
X161520000Y-109450000D02*
X160250000Y-109450000D01*
X168500000Y-93600000D02*
X168500000Y-109200000D01*
X168500000Y-109200000D02*
X160500000Y-109200000D01*
%TO.C,Y1*%
X140585000Y-89875000D02*
X134335000Y-89875000D01*
X140585000Y-94925000D02*
X134335000Y-94925000D01*
X134335000Y-94925000D02*
G75*
G02*
X134335000Y-89875000I0J2525000D01*
G01*
X140585000Y-89875000D02*
G75*
G02*
X140585000Y-94925000I0J-2525000D01*
G01*
%TO.C,R11*%
X132916359Y-115720000D02*
X133223641Y-115720000D01*
X132916359Y-116480000D02*
X133223641Y-116480000D01*
%TO.C,R12*%
X130416359Y-115720000D02*
X130723641Y-115720000D01*
X130416359Y-116480000D02*
X130723641Y-116480000D01*
%TO.C,R3*%
X92220000Y-104136359D02*
X92220000Y-104443641D01*
X92980000Y-104136359D02*
X92980000Y-104443641D01*
%TO.C,J5*%
X98350000Y-103230000D02*
X98350000Y-108430000D01*
X106030000Y-103230000D02*
X98350000Y-103230000D01*
X106030000Y-103230000D02*
X106030000Y-105830000D01*
X106030000Y-105830000D02*
X108630000Y-105830000D01*
X107300000Y-103230000D02*
X108630000Y-103230000D01*
X108630000Y-103230000D02*
X108630000Y-104560000D01*
X108630000Y-105830000D02*
X108630000Y-108430000D01*
X108630000Y-108430000D02*
X98350000Y-108430000D01*
%TO.C,C1*%
X148115000Y-83563748D02*
X148115000Y-84086252D01*
X149585000Y-83563748D02*
X149585000Y-84086252D01*
%TD*%
M02*
