M48
; DRILL file {KiCad 8.0.5} date 2025-01-03T15:42:33+0700
; FORMAT={-:-/ absolute / inch / decimal}
; #@! TF.CreationDate,2025-01-03T15:42:33+07:00
; #@! TF.GenerationSoftware,Kicad,Pcbnew,8.0.5
; #@! TF.FileFunction,Plated,1,2,PTH
FMAT,2
INCH
; #@! TA.AperFunction,Plated,PTH,ViaDrill
T1C0.0157
; #@! TA.AperFunction,Plated,PTH,ComponentDrill
T2C0.0217
; #@! TA.AperFunction,Plated,PTH,ComponentDrill
T3C0.0315
; #@! TA.AperFunction,Plated,PTH,ComponentDrill
T4C0.0335
; #@! TA.AperFunction,Plated,PTH,ComponentDrill
T5C0.0374
; #@! TA.AperFunction,Plated,PTH,ComponentDrill
T6C0.0394
; #@! TA.AperFunction,Plated,PTH,ComponentDrill
T7C0.0433
%
G90
G05
T1
X3.7008Y-4.0866
X3.7717Y-4.1575
X4.0236Y-3.9953
X4.2283Y-3.8583
X4.4606Y-4.3189
X4.563Y-4.1732
X4.563Y-4.4961
X5.0079Y-4.2165
X5.0079Y-4.2559
X5.0551Y-4.4094
X5.1654Y-4.5315
X5.1811Y-3.8268
X5.2244Y-3.8268
X5.2441Y-4.2165
X5.2441Y-4.2559
X5.2638Y-4.5354
X5.2677Y-3.8268
X5.311Y-3.7835
X5.3346Y-3.8346
X5.3622Y-4.5394
X5.4331Y-4.063
X5.4567Y-3.3071
X5.4567Y-3.3425
X5.4606Y-4.6063
X5.5Y-3.7835
X5.5118Y-3.9213
X5.5157Y-4.3976
X5.5433Y-3.4843
X5.563Y-4.6063
X5.5945Y-4.2047
X5.6089Y-3.0226
X5.6089Y-3.0581
X5.6929Y-4.3819
X5.7441Y-3.9488
X5.8451Y-3.3888
X5.8805Y-3.3888
X5.9961Y-4.5354
X5.9961Y-4.6811
X6.0709Y-3.315
X6.0709Y-3.3504
X6.1432Y-3.4902
X6.1969Y-4.1811
X6.2142Y-3.0315
X6.2142Y-3.0669
X6.3238Y-4.7205
X6.4465Y-3.3858
X6.4819Y-3.3858
T3
X3.626Y-2.6772
X3.6323Y-2.9488
X3.6323Y-3.4488
X3.7244Y-2.6772
X3.7323Y-2.9488
X3.7323Y-3.4488
X3.8323Y-2.9488
X3.8323Y-3.4488
X3.9323Y-2.9488
X3.9323Y-3.4488
X4.0323Y-2.9488
X4.0323Y-3.4488
X4.1323Y-2.9488
X4.1323Y-3.4488
X4.2323Y-2.9488
X4.2323Y-3.4488
X4.3323Y-2.9488
X4.3323Y-3.4488
X4.5197Y-2.6772
X4.5402Y-2.9528
X4.5402Y-3.4528
X4.6181Y-2.6772
X4.6402Y-2.9528
X4.6402Y-3.4528
X4.7402Y-2.9528
X4.7402Y-3.4528
X4.8402Y-2.9528
X4.8402Y-3.4528
X4.9402Y-2.9528
X4.9402Y-3.4528
X5.0402Y-2.9528
X5.0402Y-3.4528
X5.1402Y-2.9528
X5.1402Y-3.4528
X5.2402Y-2.9528
X5.2402Y-3.4528
X5.3157Y-3.6378
X5.5079Y-3.6378
X6.4213Y-3.8421
X6.4213Y-3.9421
X6.4213Y-4.0421
X6.4213Y-4.1421
T5
X3.9764Y-2.6772
X4.0748Y-2.6772
X4.1732Y-2.6772
X4.2717Y-2.6772
X4.6614Y-4.7441
X4.7598Y-4.7441
X4.8583Y-4.7441
X4.8937Y-2.6732
X4.9921Y-2.6732
X5.0906Y-2.6732
X5.1197Y-4.7402
X5.189Y-2.6732
X5.2181Y-4.7402
X5.3165Y-4.7402
X5.415Y-4.7402
X5.5134Y-4.7402
T6
X3.274Y-4.0047
X3.274Y-4.1047
X3.274Y-4.2047
X3.274Y-4.3047
X3.374Y-4.0047
X3.374Y-4.1047
X3.374Y-4.2047
X3.374Y-4.3047
X3.9244Y-4.1165
X3.9244Y-4.2165
X4.0244Y-4.1165
X4.0244Y-4.2165
X4.1244Y-4.1165
X4.1244Y-4.2165
X4.2244Y-4.1165
X4.2244Y-4.2165
X5.6904Y-4.5157
X5.6929Y-4.1244
X5.6929Y-4.2244
X5.7598Y-4.7402
X5.7904Y-4.5157
X5.8583Y-4.7402
T7
X6.9213Y-2.989
X6.9213Y-3.189
T2
G00X6.1201Y-4.9321
M15
G01X6.1201Y-4.9577
M16
G05
G00X6.4252Y-4.9321
M15
G01X6.4252Y-4.9577
M16
G05
T4
G00X6.126Y-4.7844
M15
G01X6.126Y-4.8061
M16
G05
G00X6.4193Y-4.7844
M15
G01X6.4193Y-4.8061
M16
G05
M30
